<svg width="55" height="56" viewBox="0 0 55 56" fill="none" xmlns="http://www.w3.org/2000/svg">
<g filter="url(#filter0_d_4028_15189)">
<path d="M2 22.6602C2 10.5099 11.8497 0.660156 24 0.660156C36.1503 0.660156 46 10.5099 46 22.6602C46 34.8104 36.1503 44.6602 24 44.6602C11.8497 44.6602 2 34.8104 2 22.6602Z" fill="url(#paint0_linear_4028_15189)" shape-rendering="crispEdges"/>
<path d="M2.32757 22.6602C2.32757 10.6908 12.0307 0.98773 24 0.98773C35.9693 0.98773 45.6724 10.6908 45.6724 22.6602C45.6724 34.6295 35.9693 44.3326 24 44.3326C12.0307 44.3326 2.32757 34.6295 2.32757 22.6602Z" stroke="#5C487F" stroke-width="0.655147" shape-rendering="crispEdges"/>
<path d="M33.7599 30.1603H33.4299C33.1888 30.1607 32.9511 30.103 32.737 29.9921C32.5229 29.8811 32.3387 29.7201 32.2 29.5228L28.2929 23.9433C28.0171 23.5484 27.6503 23.2256 27.2234 23.0024C26.7966 22.7792 26.3222 22.6621 25.8406 22.6609H25.5106V18.9112H26.2605C26.4279 18.9179 26.5926 18.8683 26.7285 18.7705C26.8645 18.6726 26.9637 18.5321 27.0105 18.3713C27.0566 18.2142 27.05 18.0463 26.9918 17.8933C26.9336 17.7403 26.8269 17.6105 26.688 17.5238L20.6885 13.7741C20.5693 13.6997 20.4316 13.6602 20.291 13.6602C20.1505 13.6602 20.0127 13.6997 19.8936 13.7741L13.8941 17.5238C13.7443 17.6015 13.6251 17.7274 13.5557 17.8811C13.4863 18.0349 13.4707 18.2076 13.5116 18.3713C13.5583 18.5321 13.6576 18.6726 13.7935 18.7705C13.9294 18.8683 14.0942 18.9179 14.2615 18.9112H15.0115V30.9102C15.0115 31.1091 15.0905 31.2999 15.2311 31.4405C15.3718 31.5811 15.5625 31.6602 15.7614 31.6602C15.9603 31.6602 16.151 31.5811 16.2917 31.4405C16.4323 31.2999 16.5113 31.1091 16.5113 30.9102V24.1608H18.0112V30.9102C18.0112 31.1091 18.0902 31.2999 18.2309 31.4405C18.3715 31.5811 18.5623 31.6602 18.7611 31.6602C18.96 31.6602 19.1508 31.5811 19.2914 31.4405C19.4321 31.2999 19.5111 31.1091 19.5111 30.9102V30.1603H21.011V30.9102C21.011 31.1091 21.09 31.2999 21.2306 31.4405C21.3713 31.5811 21.562 31.6602 21.7609 31.6602C21.9598 31.6602 22.1505 31.5811 22.2912 31.4405C22.4318 31.2999 22.5108 31.1091 22.5108 30.9102V24.1608H24.0107V30.9102C24.0107 31.1091 24.0897 31.2999 24.2304 31.4405C24.371 31.5811 24.5618 31.6602 24.7606 31.6602C24.9595 31.6602 25.1503 31.5811 25.2909 31.4405C25.4316 31.2999 25.5106 31.1091 25.5106 30.9102V24.1608H25.8406C26.0817 24.1603 26.3194 24.218 26.5335 24.329C26.7476 24.44 26.9318 24.6009 27.0705 24.7982L30.9776 30.3778C31.2534 30.7727 31.6202 31.0954 32.0471 31.3186C32.4739 31.5419 32.9482 31.659 33.4299 31.6602H33.7599C33.9588 31.6602 34.1495 31.5811 34.2902 31.4405C34.4308 31.2999 34.5098 31.1091 34.5098 30.9102C34.5098 30.7113 34.4308 30.5206 34.2902 30.3799C34.1495 30.2393 33.9588 30.1603 33.7599 30.1603ZM18.7611 21.161C18.7611 20.7632 18.9192 20.3817 19.2005 20.1005C19.4817 19.8192 19.8632 19.6612 20.261 19.6612C20.6588 19.6612 21.0403 19.8192 21.3216 20.1005C21.6029 20.3817 21.7609 20.7632 21.7609 21.161V22.6609H18.7611V21.161ZM19.5111 28.6604V27.1605H21.011V28.6604H19.5111ZM21.011 25.6607H19.5111V24.1608H21.011V25.6607Z" fill="#EFEDF1"/>
</g>
<defs>
<filter id="filter0_d_4028_15189" x="0.231103" y="0.660156" width="54.0893" height="54.941" filterUnits="userSpaceOnUse" color-interpolation-filters="sRGB">
<feFlood flood-opacity="0" result="BackgroundImageFix"/>
<feColorMatrix in="SourceAlpha" type="matrix" values="0 0 0 0 0 0 0 0 0 0 0 0 0 0 0 0 0 0 127 0" result="hardAlpha"/>
<feOffset dx="3.27574" dy="5.89632"/>
<feGaussianBlur stdDeviation="2.52232"/>
<feComposite in2="hardAlpha" operator="out"/>
<feColorMatrix type="matrix" values="0 0 0 0 0 0 0 0 0 0 0 0 0 0 0 0 0 0 0.25 0"/>
<feBlend mode="normal" in2="BackgroundImageFix" result="effect1_dropShadow_4028_15189"/>
<feBlend mode="normal" in="SourceGraphic" in2="effect1_dropShadow_4028_15189" result="shape"/>
</filter>
<linearGradient id="paint0_linear_4028_15189" x1="38.7847" y1="40.391" x2="-0.294042" y2="-3.07045" gradientUnits="userSpaceOnUse">
<stop stop-color="#2F2244" stop-opacity="0"/>
<stop offset="1" stop-color="#9381B1"/>
</linearGradient>
</defs>
</svg>
