<svg width="55" height="56" viewBox="0 0 55 56" fill="none" xmlns="http://www.w3.org/2000/svg">
<g filter="url(#filter0_d_4028_15218)">
<path d="M2 22.6602C2 10.5099 11.8497 0.660156 24 0.660156C36.1503 0.660156 46 10.5099 46 22.6602C46 34.8104 36.1503 44.6602 24 44.6602C11.8497 44.6602 2 34.8104 2 22.6602Z" fill="url(#paint0_linear_4028_15218)" shape-rendering="crispEdges"/>
<path d="M2.32757 22.6602C2.32757 10.6908 12.0307 0.98773 24 0.98773C35.9694 0.98773 45.6724 10.6908 45.6724 22.6602C45.6724 34.6295 35.9694 44.3326 24 44.3326C12.0307 44.3326 2.32757 34.6295 2.32757 22.6602Z" stroke="#5C487F" stroke-width="0.655147" shape-rendering="crispEdges"/>
<path d="M24.6541 26.4746H23.5987C23.1061 26.4746 22.6605 26.8029 22.5432 27.2955L22.4025 27.8818C22.0741 29.1952 22.2618 29.447 22.9419 30.6197L24.1381 32.6602L25.3343 30.6197C26.0144 29.447 26.2021 29.1952 25.8737 27.8818L25.733 27.2955C25.5923 26.8029 25.1466 26.4746 24.6541 26.4746ZM24.5837 28.8903L24.1381 29.6409L23.6925 28.8903C23.4345 28.4682 23.3641 27.9522 23.5048 27.4596L23.5517 27.2486C23.5987 27.0609 23.7628 26.9437 23.9505 26.9437H24.3257C24.5134 26.9437 24.6775 27.0609 24.7245 27.2486L24.7714 27.4596C24.8886 27.9287 24.8183 28.4447 24.5837 28.8903Z" fill="#EFEDF1"/>
<path d="M18.9079 25.4661L20.9014 24.6217C20.9484 24.9032 21.0187 25.2081 21.0656 25.4895C21.1125 25.7006 21.3002 25.8413 21.5347 25.8413L23.0123 25.7475C23.6925 25.7006 24.3726 25.7006 25.0528 25.7475L26.46 25.8413C26.6711 25.8648 26.8822 25.724 26.9291 25.513C26.9995 25.2315 27.0699 24.9266 27.1168 24.6452L29.1104 25.513C29.3683 25.6537 29.6498 25.4191 29.5794 25.1612L29.4153 24.2464C29.1573 22.8392 28.3833 21.5727 27.3044 20.658C27.0933 18.1484 26.2255 15.7092 24.7948 13.5514L24.2788 12.8009C24.1381 12.6132 23.8567 12.6132 23.7159 12.8009L23.2938 13.4341C21.8162 15.6154 20.9484 18.1015 20.7138 20.658C19.6115 21.5727 18.8609 22.8392 18.5795 24.2699L18.4153 25.1846C18.3684 25.3957 18.6499 25.6068 18.9079 25.4661ZM23.9739 16.7177C24.7479 16.7177 25.3812 17.351 25.3812 18.1249C25.3812 18.8989 24.7479 19.5322 23.9739 19.5322C23.1999 19.5322 22.5667 18.8989 22.5667 18.1249C22.5667 17.351 23.1999 16.7177 23.9739 16.7177Z" fill="#EFEDF1"/>
</g>
<defs>
<filter id="filter0_d_4028_15218" x="0.231103" y="0.660156" width="54.0893" height="54.941" filterUnits="userSpaceOnUse" color-interpolation-filters="sRGB">
<feFlood flood-opacity="0" result="BackgroundImageFix"/>
<feColorMatrix in="SourceAlpha" type="matrix" values="0 0 0 0 0 0 0 0 0 0 0 0 0 0 0 0 0 0 127 0" result="hardAlpha"/>
<feOffset dx="3.27574" dy="5.89632"/>
<feGaussianBlur stdDeviation="2.52232"/>
<feComposite in2="hardAlpha" operator="out"/>
<feColorMatrix type="matrix" values="0 0 0 0 0 0 0 0 0 0 0 0 0 0 0 0 0 0 0.25 0"/>
<feBlend mode="normal" in2="BackgroundImageFix" result="effect1_dropShadow_4028_15218"/>
<feBlend mode="normal" in="SourceGraphic" in2="effect1_dropShadow_4028_15218" result="shape"/>
</filter>
<linearGradient id="paint0_linear_4028_15218" x1="38.7847" y1="40.391" x2="-0.294042" y2="-3.07045" gradientUnits="userSpaceOnUse">
<stop stop-color="#2F2244" stop-opacity="0"/>
<stop offset="1" stop-color="#9381B1"/>
</linearGradient>
</defs>
</svg>
