<svg width="55" height="56" viewBox="0 0 55 56" fill="none" xmlns="http://www.w3.org/2000/svg">
<g filter="url(#filter0_d_4028_15249)">
<path d="M2 22.6602C2 10.5099 11.8497 0.660156 24 0.660156C36.1503 0.660156 46 10.5099 46 22.6602C46 34.8104 36.1503 44.6602 24 44.6602C11.8497 44.6602 2 34.8104 2 22.6602Z" fill="url(#paint0_linear_4028_15249)" shape-rendering="crispEdges"/>
<path d="M2.32757 22.6602C2.32757 10.6908 12.0307 0.98773 24 0.98773C35.9693 0.98773 45.6724 10.6908 45.6724 22.6602C45.6724 34.6295 35.9693 44.3326 24 44.3326C12.0307 44.3326 2.32757 34.6295 2.32757 22.6602Z" stroke="#5C487F" stroke-width="0.655147" shape-rendering="crispEdges"/>
<path fill-rule="evenodd" clip-rule="evenodd" d="M22.9424 17.7411C22.9424 16.6366 23.8379 15.7412 24.9424 15.7412H30.4489C31.5535 15.7412 32.4489 16.6366 32.4489 17.7412V29.5195H22.9424V17.7411ZM15.1914 30.9426C15.1914 31.3389 15.5127 31.6602 15.909 31.6602H32.0905C32.4868 31.6602 32.808 31.3389 32.808 30.9426C32.808 30.5463 32.4868 30.225 32.0905 30.225H15.909C15.5127 30.225 15.1914 30.5463 15.1914 30.9426ZM30.2275 15.0353C30.6072 15.0353 30.915 14.7274 30.915 14.3477C30.915 13.968 30.6072 13.6602 30.2275 13.6602H24.9488C24.5691 13.6602 24.2613 13.968 24.2613 14.3477C24.2613 14.7274 24.5691 15.0353 24.9488 15.0353H30.2275ZM17.1509 20.4406C17.1509 19.3361 18.0463 18.4406 19.1509 18.4406H20.2363C21.3408 18.4406 22.2363 19.3361 22.2363 20.4406V29.5195H17.1509V20.4406ZM18.7817 20.3998C18.7817 20.9028 19.1895 21.3106 19.6925 21.3106C20.1955 21.3106 20.6033 20.9028 20.6033 20.3998C20.6033 19.8967 20.1955 19.489 19.6925 19.489C19.1895 19.489 18.7817 19.8967 18.7817 20.3998ZM18.7817 23.9691C18.7817 24.4721 19.1895 24.8799 19.6925 24.8799C20.1955 24.8799 20.6033 24.4721 20.6033 23.9691C20.6033 23.4661 20.1955 23.0583 19.6925 23.0583C19.1895 23.0583 18.7817 23.4661 18.7817 23.9691ZM18.7817 28.445C18.7817 28.4473 18.7836 28.4493 18.786 28.4493H19.6925C20.1955 28.4493 20.6033 28.0398 20.6033 27.5368C20.6033 27.0338 20.1955 26.6243 19.6925 26.6243C19.1895 26.6243 18.7817 27.0321 18.7817 27.5351V28.445ZM29.5687 26.6181C29.0656 26.6181 28.6577 27.026 28.6577 27.5291C28.6577 28.0322 29.0656 28.44 29.5687 28.44C30.0718 28.44 30.4796 28.0322 30.4796 27.5291C30.4796 27.026 30.0718 26.6181 29.5687 26.6181ZM25.8225 26.6181C25.3195 26.6181 24.9117 27.0261 24.9117 27.5291C24.9117 28.0321 25.3195 28.44 25.8225 28.44C26.3256 28.44 26.7333 28.0321 26.7333 27.5291C26.7333 27.0261 26.3256 26.6181 25.8225 26.6181ZM29.5687 23.5103C29.0656 23.5103 28.6577 23.9182 28.6577 24.4213C28.6577 24.9244 29.0656 25.3322 29.5687 25.3322C30.0718 25.3322 30.4796 24.9244 30.4796 24.4213C30.4796 23.9182 30.0718 23.5103 29.5687 23.5103ZM25.8225 23.5103C25.3195 23.5103 24.9117 23.9183 24.9117 24.4213C24.9117 24.9243 25.3195 25.3322 25.8225 25.3322C26.3256 25.3322 26.7333 24.9243 26.7333 24.4213C26.7333 23.9183 26.3256 23.5103 25.8225 23.5103ZM29.5687 20.4025C29.0656 20.4025 28.6577 20.8103 28.6577 21.3133C28.6577 21.8164 29.0656 22.2241 29.5687 22.2241C30.0717 22.2241 30.4796 21.8164 30.4796 21.3133C30.4796 20.8103 30.0717 20.4025 29.5687 20.4025ZM25.8225 20.4025C25.3195 20.4025 24.9117 20.8103 24.9117 21.3133C24.9117 21.8164 25.3195 22.2241 25.8225 22.2241C26.3256 22.2241 26.7333 21.8164 26.7333 21.3133C26.7333 20.8103 26.3256 20.4025 25.8225 20.4025ZM29.5687 17.2947C29.0656 17.2947 28.6577 17.7025 28.6577 18.2055C28.6577 18.7086 29.0656 19.1163 29.5687 19.1163C30.0717 19.1163 30.4796 18.7086 30.4796 18.2055C30.4796 17.7025 30.0717 17.2947 29.5687 17.2947ZM25.8225 17.2947C25.3195 17.2947 24.9117 17.7025 24.9117 18.2055C24.9117 18.7086 25.3195 19.1163 25.8225 19.1163C26.3256 19.1163 26.7333 18.7086 26.7333 18.2055C26.7333 17.7025 26.3256 17.2947 25.8225 17.2947Z" fill="#EFEDF1"/>
</g>
<defs>
<filter id="filter0_d_4028_15249" x="0.231103" y="0.660156" width="54.0893" height="54.941" filterUnits="userSpaceOnUse" color-interpolation-filters="sRGB">
<feFlood flood-opacity="0" result="BackgroundImageFix"/>
<feColorMatrix in="SourceAlpha" type="matrix" values="0 0 0 0 0 0 0 0 0 0 0 0 0 0 0 0 0 0 127 0" result="hardAlpha"/>
<feOffset dx="3.27574" dy="5.89632"/>
<feGaussianBlur stdDeviation="2.52232"/>
<feComposite in2="hardAlpha" operator="out"/>
<feColorMatrix type="matrix" values="0 0 0 0 0 0 0 0 0 0 0 0 0 0 0 0 0 0 0.25 0"/>
<feBlend mode="normal" in2="BackgroundImageFix" result="effect1_dropShadow_4028_15249"/>
<feBlend mode="normal" in="SourceGraphic" in2="effect1_dropShadow_4028_15249" result="shape"/>
</filter>
<linearGradient id="paint0_linear_4028_15249" x1="38.7847" y1="40.391" x2="-0.294042" y2="-3.07045" gradientUnits="userSpaceOnUse">
<stop stop-color="#2F2244" stop-opacity="0"/>
<stop offset="1" stop-color="#9381B1"/>
</linearGradient>
</defs>
</svg>
