<svg width="16" height="16" viewBox="0 0 16 16" fill="none" xmlns="http://www.w3.org/2000/svg">
<path d="M8.08031 9.01901C8.06698 9.01901 8.04698 9.01901 8.03365 9.01901C8.01365 9.01901 7.98698 9.01901 7.96698 9.01901C6.45365 8.97234 5.32031 7.79234 5.32031 6.33901C5.32031 4.85901 6.52698 3.65234 8.00698 3.65234C9.48698 3.65234 10.6936 4.85901 10.6936 6.33901C10.687 7.79901 9.54698 8.97234 8.10031 9.01901C8.08698 9.01901 8.08698 9.01901 8.08031 9.01901ZM8.00031 4.64568C7.06698 4.64568 6.31365 5.40568 6.31365 6.33234C6.31365 7.24568 7.02698 7.98568 7.93365 8.01901C7.95365 8.01234 8.02031 8.01234 8.08698 8.01901C8.98031 7.97234 9.68031 7.23901 9.68698 6.33234C9.68698 5.40568 8.93365 4.64568 8.00031 4.64568Z" fill="#EFEDF1"/>
<path d="M7.99924 15.1669C6.20591 15.1669 4.49257 14.5002 3.16591 13.2869C3.04591 13.1802 2.99257 13.0202 3.00591 12.8669C3.09257 12.0735 3.58591 11.3335 4.40591 10.7869C6.39257 9.46687 9.61257 9.46687 11.5926 10.7869C12.4126 11.3402 12.9059 12.0735 12.9926 12.8669C13.0126 13.0269 12.9526 13.1802 12.8326 13.2869C11.5059 14.5002 9.79257 15.1669 7.99924 15.1669ZM4.05257 12.7335C5.15924 13.6602 6.55257 14.1669 7.99924 14.1669C9.44591 14.1669 10.8392 13.6602 11.9459 12.7335C11.8259 12.3269 11.5059 11.9335 11.0326 11.6135C9.39257 10.5202 6.61257 10.5202 4.95924 11.6135C4.48591 11.9335 4.17257 12.3269 4.05257 12.7335Z" fill="#EFEDF1"/>
<path d="M7.9987 15.1654C4.04536 15.1654 0.832031 11.952 0.832031 7.9987C0.832031 4.04536 4.04536 0.832031 7.9987 0.832031C11.952 0.832031 15.1654 4.04536 15.1654 7.9987C15.1654 11.952 11.952 15.1654 7.9987 15.1654ZM7.9987 1.83203C4.5987 1.83203 1.83203 4.5987 1.83203 7.9987C1.83203 11.3987 4.5987 14.1654 7.9987 14.1654C11.3987 14.1654 14.1654 11.3987 14.1654 7.9987C14.1654 4.5987 11.3987 1.83203 7.9987 1.83203Z" fill="#EFEDF1"/>
</svg>
