<svg width="16" height="16" viewBox="0 0 16 16" fill="none" xmlns="http://www.w3.org/2000/svg">
<path d="M9.9987 15.1693H5.9987C2.3787 15.1693 0.832031 13.6226 0.832031 10.0026V6.0026C0.832031 2.3826 2.3787 0.835938 5.9987 0.835938H9.9987C13.6187 0.835938 15.1654 2.3826 15.1654 6.0026V10.0026C15.1654 13.6226 13.6187 15.1693 9.9987 15.1693ZM5.9987 1.83594C2.92536 1.83594 1.83203 2.92927 1.83203 6.0026V10.0026C1.83203 13.0759 2.92536 14.1693 5.9987 14.1693H9.9987C13.072 14.1693 14.1654 13.0759 14.1654 10.0026V6.0026C14.1654 2.92927 13.072 1.83594 9.9987 1.83594H5.9987Z" fill="#C69A71"/>
<path d="M5.87186 12.1643C5.82519 12.1643 5.77186 12.1643 5.72519 12.1509L4.93186 12.0443C4.45186 11.9776 4.03186 11.5643 3.95853 11.0709L3.84519 10.2643C3.79853 9.94427 3.93186 9.5376 4.16519 9.2976L5.68519 7.7776C5.45853 6.6976 5.78519 5.5776 6.57853 4.79094C7.85186 3.5176 9.93186 3.5176 11.2052 4.79094C11.8252 5.41094 12.1652 6.23094 12.1652 7.10427C12.1652 7.9776 11.8252 8.80427 11.2052 9.4176C10.4119 10.2043 9.29186 10.5309 8.21853 10.3043L6.69186 11.8243C6.49853 12.0309 6.17186 12.1643 5.87186 12.1643ZM8.89186 4.83094C8.31186 4.83094 7.72519 5.05094 7.28519 5.4976C6.68519 6.0976 6.47186 6.97094 6.71853 7.78427C6.77186 7.96427 6.72519 8.15094 6.59186 8.28427L4.87186 10.0043C4.85853 10.0243 4.83186 10.0976 4.83186 10.1243L4.94519 10.9243C4.95186 10.9643 5.02519 11.0376 5.06519 11.0443L5.86519 11.1576C5.89853 11.1509 5.96519 11.1376 5.98519 11.1176L7.71186 9.39094C7.84519 9.2576 8.03853 9.2176 8.21186 9.27094C9.01853 9.52427 9.89186 9.31094 10.4919 8.71094C10.9185 8.28427 11.1585 7.71094 11.1585 7.10427C11.1585 6.4976 10.9252 5.92427 10.4919 5.4976C10.0585 5.0576 9.47186 4.83094 8.89186 4.83094Z" fill="#C69A71"/>
<path d="M6.9662 11.3529C6.83953 11.3529 6.71286 11.3063 6.61286 11.2063L6.03953 10.6329C5.8462 10.4396 5.8462 10.1196 6.03953 9.92625C6.23286 9.73292 6.55286 9.73292 6.7462 9.92625L7.31953 10.4996C7.51286 10.6929 7.51286 11.0129 7.31953 11.2063C7.2262 11.3063 7.09953 11.3529 6.9662 11.3529Z" fill="#C69A71"/>
<path d="M8.91943 7.86512C8.82609 7.86512 8.73943 7.85178 8.65943 7.81845C8.57943 7.78512 8.50609 7.73178 8.44609 7.67178C8.31943 7.54512 8.24609 7.37845 8.24609 7.19845C8.24609 7.02512 8.31943 6.85178 8.44609 6.73178C8.59943 6.57178 8.83276 6.49845 9.04609 6.54512C9.08609 6.55845 9.13276 6.56512 9.17276 6.58512C9.21276 6.60512 9.25276 6.62512 9.28609 6.64512C9.31943 6.67178 9.35943 6.69845 9.38609 6.73178C9.51276 6.85178 9.58609 7.02512 9.58609 7.19845C9.58609 7.29178 9.56609 7.37178 9.53276 7.45845C9.49943 7.53845 9.45276 7.61178 9.38609 7.67178C9.25943 7.79845 9.09276 7.86512 8.91943 7.86512Z" fill="#C69A71"/>
</svg>
