<svg width="16" height="16" viewBox="0 0 16 16" fill="none" xmlns="http://www.w3.org/2000/svg">
<path d="M11.332 15.1641H4.66536C2.37203 15.1641 0.832031 13.6241 0.832031 11.3307V7.9974C0.832031 5.94406 2.0987 4.4574 4.06536 4.21073C4.25203 4.18407 4.4587 4.16406 4.66536 4.16406H11.332C11.492 4.16406 11.6987 4.17073 11.912 4.20406C13.8787 4.43073 15.1654 5.92406 15.1654 7.9974V11.3307C15.1654 13.6241 13.6254 15.1641 11.332 15.1641ZM4.66536 5.16406C4.50536 5.16406 4.35203 5.17739 4.1987 5.19739C2.73203 5.38405 1.83203 6.45073 1.83203 7.9974V11.3307C1.83203 13.0507 2.94536 14.1641 4.66536 14.1641H11.332C13.052 14.1641 14.1654 13.0507 14.1654 11.3307V7.9974C14.1654 6.4374 13.252 5.36407 11.772 5.19073C11.612 5.16407 11.472 5.16406 11.332 5.16406H4.66536Z" fill="#C69A71"/>
<path d="M4.128 5.20761C3.968 5.20761 3.82133 5.13428 3.72133 5.00094C3.608 4.84761 3.59467 4.64761 3.68133 4.48095C3.79467 4.25428 3.95467 4.03428 4.16133 3.83428L6.328 1.66094C7.43467 0.560937 9.23467 0.560937 10.3413 1.66094L11.508 2.84095C12.0013 3.32762 12.3013 3.98095 12.3347 4.67428C12.3413 4.82762 12.2813 4.97427 12.168 5.07427C12.0547 5.17427 11.9013 5.22095 11.7547 5.19428C11.6213 5.17428 11.4813 5.16761 11.3347 5.16761H4.668C4.508 5.16761 4.35467 5.18094 4.20133 5.20094C4.18133 5.2076 4.15467 5.20761 4.128 5.20761ZM5.24133 4.16761H11.2147C11.128 3.94094 10.988 3.73428 10.8013 3.54762L9.628 2.36095C8.91467 1.65428 7.748 1.65428 7.028 2.36095L5.24133 4.16761Z" fill="#C69A71"/>
<path d="M14.6654 11.5026H12.6654C11.652 11.5026 10.832 10.6826 10.832 9.66927C10.832 8.65594 11.652 7.83594 12.6654 7.83594H14.6654C14.9387 7.83594 15.1654 8.0626 15.1654 8.33594C15.1654 8.60927 14.9387 8.83594 14.6654 8.83594H12.6654C12.2054 8.83594 11.832 9.20927 11.832 9.66927C11.832 10.1293 12.2054 10.5026 12.6654 10.5026H14.6654C14.9387 10.5026 15.1654 10.7293 15.1654 11.0026C15.1654 11.2759 14.9387 11.5026 14.6654 11.5026Z" fill="#C69A71"/>
</svg>
