<svg width="16" height="16" viewBox="0 0 16 16" fill="none" xmlns="http://www.w3.org/2000/svg">
<path d="M7.9987 15.1693C4.04536 15.1693 0.832031 11.9559 0.832031 8.0026C0.832031 4.04927 4.04536 0.835938 7.9987 0.835938C11.952 0.835938 15.1654 4.04927 15.1654 8.0026C15.1654 11.9559 11.952 15.1693 7.9987 15.1693ZM7.9987 1.83594C4.5987 1.83594 1.83203 4.6026 1.83203 8.0026C1.83203 11.4026 4.5987 14.1693 7.9987 14.1693C11.3987 14.1693 14.1654 11.4026 14.1654 8.0026C14.1654 4.6026 11.3987 1.83594 7.9987 1.83594Z" fill="#C69A71"/>
<path d="M6.00016 14.5H5.33349C5.06016 14.5 4.83349 14.2733 4.83349 14C4.83349 13.7267 5.04682 13.5067 5.32016 13.5C4.27349 9.92667 4.27349 6.07333 5.32016 2.5C5.04682 2.49333 4.83349 2.27333 4.83349 2C4.83349 1.72667 5.06016 1.5 5.33349 1.5H6.00016C6.16016 1.5 6.31349 1.58 6.40682 1.70667C6.50016 1.84 6.52682 2.00667 6.47349 2.16C5.22016 5.92667 5.22016 10.0733 6.47349 13.8467C6.52682 14 6.50016 14.1667 6.40682 14.3C6.31349 14.42 6.16016 14.5 6.00016 14.5Z" fill="#C69A71"/>
<path d="M10.0016 14.4978C9.94823 14.4978 9.8949 14.4912 9.84157 14.4712C9.58157 14.3845 9.4349 14.0978 9.52823 13.8378C10.7816 10.0712 10.7816 5.92451 9.52823 2.15117C9.44157 1.89117 9.58157 1.60451 9.84157 1.51784C10.1082 1.43117 10.3882 1.57117 10.4749 1.83117C11.8016 5.80451 11.8016 10.1778 10.4749 14.1445C10.4082 14.3645 10.2082 14.4978 10.0016 14.4978Z" fill="#C69A71"/>
<path d="M8 11.4672C6.14 11.4672 4.28667 11.2072 2.5 10.6805C2.49333 10.9472 2.27333 11.1672 2 11.1672C1.72667 11.1672 1.5 10.9405 1.5 10.6672V10.0005C1.5 9.84052 1.58 9.68718 1.70667 9.59385C1.84 9.50052 2.00667 9.47385 2.16 9.52718C5.92667 10.7805 10.08 10.7805 13.8467 9.52718C14 9.47385 14.1667 9.50052 14.3 9.59385C14.4333 9.68718 14.5067 9.84052 14.5067 10.0005V10.6672C14.5067 10.9405 14.28 11.1672 14.0067 11.1672C13.7333 11.1672 13.5133 10.9538 13.5067 10.6805C11.7133 11.2072 9.86 11.4672 8 11.4672Z" fill="#C69A71"/>
<path d="M13.9986 6.49958C13.9452 6.49958 13.8919 6.49292 13.8386 6.47292C10.0719 5.21958 5.91855 5.21958 2.15189 6.47292C1.88522 6.55958 1.60522 6.41958 1.51855 6.15958C1.43855 5.89292 1.57855 5.61292 1.83855 5.52625C5.81189 4.19958 10.1852 4.19958 14.1519 5.52625C14.4119 5.61292 14.5586 5.89958 14.4652 6.15958C14.4052 6.36625 14.2052 6.49958 13.9986 6.49958Z" fill="#C69A71"/>
</svg>
