<svg width="16" height="16" viewBox="0 0 16 16" fill="none" xmlns="http://www.w3.org/2000/svg">
<path d="M12.1254 11.832H5.02536C4.36536 11.832 3.73203 11.552 3.28536 11.0654C2.83869 10.5787 2.61203 9.92536 2.66536 9.26536L3.2187 2.62537C3.2387 2.4187 3.16536 2.2187 3.02536 2.06537C2.88536 1.91204 2.69203 1.83203 2.48536 1.83203H1.33203C1.0587 1.83203 0.832031 1.60536 0.832031 1.33203C0.832031 1.0587 1.0587 0.832031 1.33203 0.832031H2.49203C2.9787 0.832031 3.43869 1.0387 3.76536 1.39203C3.94536 1.59203 4.0787 1.82537 4.15203 2.08537H12.4787C13.152 2.08537 13.772 2.35203 14.2254 2.83203C14.672 3.3187 14.8987 3.95203 14.8454 4.62537L14.4854 9.62537C14.412 10.8454 13.3454 11.832 12.1254 11.832ZM4.18536 3.07869L3.66536 9.34536C3.63203 9.73202 3.7587 10.0987 4.0187 10.3854C4.2787 10.672 4.63869 10.8254 5.02536 10.8254H12.1254C12.8187 10.8254 13.4454 10.2387 13.4987 9.54537L13.8587 4.54537C13.8854 4.15204 13.7587 3.7787 13.4987 3.50537C13.2387 3.22537 12.8787 3.07202 12.4854 3.07202H4.18536V3.07869Z" fill="#C69A71"/>
<path d="M10.8333 15.1667C10.1 15.1667 9.5 14.5667 9.5 13.8333C9.5 13.1 10.1 12.5 10.8333 12.5C11.5667 12.5 12.1667 13.1 12.1667 13.8333C12.1667 14.5667 11.5667 15.1667 10.8333 15.1667ZM10.8333 13.5C10.6467 13.5 10.5 13.6467 10.5 13.8333C10.5 14.02 10.6467 14.1667 10.8333 14.1667C11.02 14.1667 11.1667 14.02 11.1667 13.8333C11.1667 13.6467 11.02 13.5 10.8333 13.5Z" fill="#C69A71"/>
<path d="M5.5013 15.1667C4.76797 15.1667 4.16797 14.5667 4.16797 13.8333C4.16797 13.1 4.76797 12.5 5.5013 12.5C6.23464 12.5 6.83464 13.1 6.83464 13.8333C6.83464 14.5667 6.23464 15.1667 5.5013 15.1667ZM5.5013 13.5C5.31464 13.5 5.16797 13.6467 5.16797 13.8333C5.16797 14.02 5.31464 14.1667 5.5013 14.1667C5.68797 14.1667 5.83464 14.02 5.83464 13.8333C5.83464 13.6467 5.68797 13.5 5.5013 13.5Z" fill="#C69A71"/>
<path d="M14 5.83203H6C5.72667 5.83203 5.5 5.60536 5.5 5.33203C5.5 5.0587 5.72667 4.83203 6 4.83203H14C14.2733 4.83203 14.5 5.0587 14.5 5.33203C14.5 5.60536 14.2733 5.83203 14 5.83203Z" fill="#C69A71"/>
</svg>
