<svg width="16" height="16" viewBox="0 0 16 16" fill="none" xmlns="http://www.w3.org/2000/svg">
<path d="M8.08031 9.02292C8.06698 9.02292 8.04698 9.02292 8.03365 9.02292C8.01365 9.02292 7.98698 9.02292 7.96698 9.02292C6.45365 8.97625 5.32031 7.79625 5.32031 6.34292C5.32031 4.86292 6.52698 3.65625 8.00698 3.65625C9.48698 3.65625 10.6936 4.86292 10.6936 6.34292C10.687 7.80292 9.54698 8.97625 8.10031 9.02292C8.08698 9.02292 8.08698 9.02292 8.08031 9.02292ZM8.00031 4.64958C7.06698 4.64958 6.31365 5.40958 6.31365 6.33625C6.31365 7.24958 7.02698 7.98958 7.93365 8.02292C7.95365 8.01625 8.02031 8.01625 8.08698 8.02292C8.98031 7.97625 9.68031 7.24292 9.68698 6.33625C9.68698 5.40958 8.93365 4.64958 8.00031 4.64958Z" fill="#C69A71"/>
<path d="M7.99924 15.1669C6.20591 15.1669 4.49257 14.5002 3.16591 13.2869C3.04591 13.1802 2.99257 13.0202 3.00591 12.8669C3.09257 12.0735 3.58591 11.3335 4.40591 10.7869C6.39257 9.46687 9.61257 9.46687 11.5926 10.7869C12.4126 11.3402 12.9059 12.0735 12.9926 12.8669C13.0126 13.0269 12.9526 13.1802 12.8326 13.2869C11.5059 14.5002 9.79257 15.1669 7.99924 15.1669ZM4.05257 12.7335C5.15924 13.6602 6.55257 14.1669 7.99924 14.1669C9.44591 14.1669 10.8392 13.6602 11.9459 12.7335C11.8259 12.3269 11.5059 11.9335 11.0326 11.6135C9.39257 10.5202 6.61257 10.5202 4.95924 11.6135C4.48591 11.9335 4.17257 12.3269 4.05257 12.7335Z" fill="#C69A71"/>
<path d="M7.9987 15.1693C4.04536 15.1693 0.832031 11.9559 0.832031 8.0026C0.832031 4.04927 4.04536 0.835938 7.9987 0.835938C11.952 0.835938 15.1654 4.04927 15.1654 8.0026C15.1654 11.9559 11.952 15.1693 7.9987 15.1693ZM7.9987 1.83594C4.5987 1.83594 1.83203 4.6026 1.83203 8.0026C1.83203 11.4026 4.5987 14.1693 7.9987 14.1693C11.3987 14.1693 14.1654 11.4026 14.1654 8.0026C14.1654 4.6026 11.3987 1.83594 7.9987 1.83594Z" fill="#C69A71"/>
</svg>
