<svg width="16" height="16" viewBox="0 0 16 16" fill="none" xmlns="http://www.w3.org/2000/svg">
<path d="M8.0013 12.0054C5.88797 12.0054 4.16797 10.2854 4.16797 8.17203C4.16797 7.41203 4.38797 6.67203 4.81464 6.04536C4.96797 5.8187 5.2813 5.75203 5.50797 5.90536C5.73463 6.0587 5.8013 6.37203 5.64797 6.5987C5.33464 7.06537 5.17463 7.61203 5.17463 8.17203C5.17463 9.73203 6.44797 11.0054 8.00797 11.0054C9.56797 11.0054 10.8413 9.73203 10.8413 8.17203C10.8413 6.61203 9.56797 5.3387 8.00797 5.3387C7.67463 5.3387 7.35463 5.38537 7.0413 5.4787C6.7813 5.5587 6.5013 5.41203 6.41463 5.14537C6.33463 4.8787 6.4813 4.5987 6.74797 4.5187C7.15463 4.39203 7.57463 4.33203 8.00797 4.33203C10.1213 4.33203 11.8413 6.05203 11.8413 8.16536C11.8413 10.2787 10.1146 12.0054 8.0013 12.0054Z" fill="#C69A71"/>
<path d="M6.41404 5.60024C6.30071 5.60024 6.18071 5.56024 6.08738 5.48024C5.88071 5.30024 5.86071 4.98024 6.04071 4.77357L7.15404 3.50024C7.33404 3.29357 7.65404 3.2669 7.86071 3.45357C8.06737 3.63357 8.08738 3.95357 7.90738 4.16024L6.79405 5.43357C6.68738 5.54024 6.55404 5.60024 6.41404 5.60024Z" fill="#C69A71"/>
<path d="M7.70521 6.54604C7.60521 6.54604 7.49854 6.51271 7.41187 6.45271L6.11854 5.50605C5.89854 5.34605 5.84521 5.03271 6.01188 4.80604C6.17188 4.58604 6.48522 4.53271 6.71188 4.69938L8.00521 5.64604C8.22521 5.80604 8.27854 6.11937 8.11188 6.34604C8.01188 6.47271 7.85854 6.54604 7.70521 6.54604Z" fill="#C69A71"/>
<path d="M9.9987 15.1654H5.9987C2.3787 15.1654 0.832031 13.6187 0.832031 9.9987V5.9987C0.832031 2.3787 2.3787 0.832031 5.9987 0.832031H9.9987C13.6187 0.832031 15.1654 2.3787 15.1654 5.9987V9.9987C15.1654 13.6187 13.6187 15.1654 9.9987 15.1654ZM5.9987 1.83203C2.92536 1.83203 1.83203 2.92536 1.83203 5.9987V9.9987C1.83203 13.072 2.92536 14.1654 5.9987 14.1654H9.9987C13.072 14.1654 14.1654 13.072 14.1654 9.9987V5.9987C14.1654 2.92536 13.072 1.83203 9.9987 1.83203H5.9987Z" fill="#C69A71"/>
</svg>
