<svg width="16" height="16" viewBox="0 0 16 16" fill="none" xmlns="http://www.w3.org/2000/svg">
<path d="M9.9987 15.1673H5.9987C2.3787 15.1673 0.832031 13.6207 0.832031 10.0007V6.00065C0.832031 2.38065 2.3787 0.833984 5.9987 0.833984H9.9987C13.6187 0.833984 15.1654 2.38065 15.1654 6.00065V10.0007C15.1654 13.6207 13.6187 15.1673 9.9987 15.1673ZM5.9987 1.83398C2.92536 1.83398 1.83203 2.92732 1.83203 6.00065V10.0007C1.83203 13.074 2.92536 14.1673 5.9987 14.1673H9.9987C13.072 14.1673 14.1654 13.074 14.1654 10.0007V6.00065C14.1654 2.92732 13.072 1.83398 9.9987 1.83398H5.9987Z" fill="#EFEDF1"/>
<path d="M5.87186 12.1662C5.82519 12.1662 5.77186 12.1662 5.72519 12.1529L4.93186 12.0462C4.45186 11.9796 4.03186 11.5662 3.95853 11.0729L3.84519 10.2662C3.79853 9.94622 3.93186 9.53956 4.16519 9.29956L5.68519 7.77956C5.45853 6.69956 5.78519 5.57956 6.57853 4.79289C7.85186 3.51956 9.93186 3.51956 11.2052 4.79289C11.8252 5.41289 12.1652 6.23289 12.1652 7.10622C12.1652 7.97956 11.8252 8.80622 11.2052 9.41956C10.4119 10.2062 9.29186 10.5329 8.21853 10.3062L6.69186 11.8262C6.49853 12.0329 6.17186 12.1662 5.87186 12.1662ZM8.89186 4.83289C8.31186 4.83289 7.72519 5.05289 7.28519 5.49956C6.68519 6.09956 6.47186 6.97289 6.71853 7.78622C6.77186 7.96622 6.72519 8.15289 6.59186 8.28622L4.87186 10.0062C4.85853 10.0262 4.83186 10.0996 4.83186 10.1262L4.94519 10.9262C4.95186 10.9662 5.02519 11.0396 5.06519 11.0462L5.86519 11.1596C5.89853 11.1529 5.96519 11.1396 5.98519 11.1196L7.71186 9.39289C7.84519 9.25956 8.03853 9.21956 8.21186 9.27289C9.01853 9.52622 9.89186 9.31289 10.4919 8.71289C10.9185 8.28622 11.1585 7.71289 11.1585 7.10622C11.1585 6.49956 10.9252 5.92622 10.4919 5.49956C10.0585 5.05956 9.47186 4.83289 8.89186 4.83289Z" fill="#EFEDF1"/>
<path d="M6.9662 11.3529C6.83953 11.3529 6.71286 11.3063 6.61286 11.2063L6.03953 10.6329C5.8462 10.4396 5.8462 10.1196 6.03953 9.92625C6.23286 9.73292 6.55286 9.73292 6.7462 9.92625L7.31953 10.4996C7.51286 10.6929 7.51286 11.0129 7.31953 11.2063C7.2262 11.3063 7.09953 11.3529 6.9662 11.3529Z" fill="#EFEDF1"/>
<path d="M8.91943 7.86707C8.82609 7.86707 8.73943 7.85374 8.65943 7.8204C8.57943 7.78707 8.50609 7.73374 8.44609 7.67374C8.31943 7.54707 8.24609 7.3804 8.24609 7.2004C8.24609 7.02707 8.31943 6.85374 8.44609 6.73374C8.59943 6.57374 8.83276 6.5004 9.04609 6.54707C9.08609 6.5604 9.13276 6.56707 9.17276 6.58707C9.21276 6.60707 9.25276 6.62707 9.28609 6.64707C9.31943 6.67374 9.35943 6.7004 9.38609 6.73374C9.51276 6.85374 9.58609 7.02707 9.58609 7.2004C9.58609 7.29374 9.56609 7.37374 9.53276 7.4604C9.49943 7.5404 9.45276 7.61374 9.38609 7.67374C9.25943 7.8004 9.09276 7.86707 8.91943 7.86707Z" fill="#EFEDF1"/>
</svg>
