<svg width="16" height="16" viewBox="0 0 16 16" fill="none" xmlns="http://www.w3.org/2000/svg">
<path d="M12.1254 11.834H5.02536C4.36536 11.834 3.73203 11.554 3.28536 11.0673C2.83869 10.5807 2.61203 9.92731 2.66536 9.26731L3.2187 2.62732C3.2387 2.42065 3.16536 2.22066 3.02536 2.06732C2.88536 1.91399 2.69203 1.83398 2.48536 1.83398H1.33203C1.0587 1.83398 0.832031 1.60732 0.832031 1.33398C0.832031 1.06065 1.0587 0.833984 1.33203 0.833984H2.49203C2.9787 0.833984 3.43869 1.04065 3.76536 1.39398C3.94536 1.59398 4.0787 1.82732 4.15203 2.08732H12.4787C13.152 2.08732 13.772 2.35398 14.2254 2.83398C14.672 3.32065 14.8987 3.95399 14.8454 4.62732L14.4854 9.62732C14.412 10.8473 13.3454 11.834 12.1254 11.834ZM4.18536 3.08065L3.66536 9.34731C3.63203 9.73398 3.7587 10.1006 4.0187 10.3873C4.2787 10.674 4.63869 10.8273 5.02536 10.8273H12.1254C12.8187 10.8273 13.4454 10.2407 13.4987 9.54732L13.8587 4.54732C13.8854 4.15399 13.7587 3.78066 13.4987 3.50732C13.2387 3.22732 12.8787 3.07397 12.4854 3.07397H4.18536V3.08065Z" fill="#EFEDF1"/>
<path d="M10.8333 15.1667C10.1 15.1667 9.5 14.5667 9.5 13.8333C9.5 13.1 10.1 12.5 10.8333 12.5C11.5667 12.5 12.1667 13.1 12.1667 13.8333C12.1667 14.5667 11.5667 15.1667 10.8333 15.1667ZM10.8333 13.5C10.6467 13.5 10.5 13.6467 10.5 13.8333C10.5 14.02 10.6467 14.1667 10.8333 14.1667C11.02 14.1667 11.1667 14.02 11.1667 13.8333C11.1667 13.6467 11.02 13.5 10.8333 13.5Z" fill="#EFEDF1"/>
<path d="M5.5013 15.1667C4.76797 15.1667 4.16797 14.5667 4.16797 13.8333C4.16797 13.1 4.76797 12.5 5.5013 12.5C6.23464 12.5 6.83464 13.1 6.83464 13.8333C6.83464 14.5667 6.23464 15.1667 5.5013 15.1667ZM5.5013 13.5C5.31464 13.5 5.16797 13.6467 5.16797 13.8333C5.16797 14.02 5.31464 14.1667 5.5013 14.1667C5.68797 14.1667 5.83464 14.02 5.83464 13.8333C5.83464 13.6467 5.68797 13.5 5.5013 13.5Z" fill="#EFEDF1"/>
<path d="M14 5.83398H6C5.72667 5.83398 5.5 5.60732 5.5 5.33398C5.5 5.06065 5.72667 4.83398 6 4.83398H14C14.2733 4.83398 14.5 5.06065 14.5 5.33398C14.5 5.60732 14.2733 5.83398 14 5.83398Z" fill="#EFEDF1"/>
</svg>
