<svg width="16" height="16" viewBox="0 0 16 16" fill="none" xmlns="http://www.w3.org/2000/svg">
<path d="M6.10573 7.74732C6.08573 7.74732 6.0724 7.74732 6.0524 7.74732C6.01906 7.74065 5.9724 7.74065 5.9324 7.74732C3.99906 7.68732 2.53906 6.16732 2.53906 4.29398C2.53906 2.38732 4.0924 0.833984 5.99906 0.833984C7.90573 0.833984 9.45906 2.38732 9.45906 4.29398C9.45239 6.16732 7.98573 7.68732 6.12573 7.74732C6.11906 7.74732 6.1124 7.74732 6.10573 7.74732ZM5.99906 1.83398C4.64573 1.83398 3.53906 2.94065 3.53906 4.29398C3.53906 5.62732 4.57906 6.70065 5.90573 6.74732C5.94573 6.74065 6.0324 6.74065 6.11906 6.74732C7.42573 6.68732 8.45239 5.61398 8.45906 4.29398C8.45906 2.94065 7.3524 1.83398 5.99906 1.83398Z" fill="#EFEDF1"/>
<path d="M11.0256 7.83268C11.0056 7.83268 10.9856 7.83268 10.9656 7.82602C10.6923 7.85268 10.4123 7.65935 10.3856 7.38602C10.3589 7.11268 10.5256 6.86602 10.7989 6.83268C10.8789 6.82602 10.9656 6.82602 11.0389 6.82602C12.0123 6.77268 12.7723 5.97268 12.7723 4.99268C12.7723 3.97935 11.9523 3.15935 10.9389 3.15935C10.6656 3.16602 10.4389 2.93935 10.4389 2.66602C10.4389 2.39268 10.6656 2.16602 10.9389 2.16602C12.4989 2.16602 13.7723 3.43935 13.7723 4.99935C13.7723 6.53268 12.5723 7.77268 11.0456 7.83268C11.0389 7.83268 11.0323 7.83268 11.0256 7.83268Z" fill="#EFEDF1"/>
<path d="M6.11307 15.0327C4.80641 15.0327 3.49307 14.6993 2.49974 14.0327C1.57307 13.4193 1.06641 12.5793 1.06641 11.666C1.06641 10.7527 1.57307 9.90602 2.49974 9.28602C4.49974 7.95935 7.73974 7.95935 9.72641 9.28602C10.6464 9.89935 11.1597 10.7393 11.1597 11.6527C11.1597 12.566 10.6531 13.4127 9.72641 14.0327C8.72641 14.6993 7.41974 15.0327 6.11307 15.0327ZM3.05307 10.126C2.41307 10.5527 2.06641 11.0993 2.06641 11.6727C2.06641 12.2393 2.41974 12.786 3.05307 13.206C4.71307 14.3193 7.51307 14.3193 9.17307 13.206C9.81307 12.7793 10.1597 12.2327 10.1597 11.6593C10.1597 11.0927 9.80641 10.546 9.17307 10.126C7.51307 9.01935 4.71307 9.01935 3.05307 10.126Z" fill="#EFEDF1"/>
<path d="M12.2268 13.8333C11.9934 13.8333 11.7868 13.6733 11.7401 13.4333C11.6868 13.16 11.8601 12.9 12.1268 12.84C12.5468 12.7533 12.9334 12.5867 13.2334 12.3533C13.6134 12.0667 13.8201 11.7067 13.8201 11.3267C13.8201 10.9467 13.6134 10.5867 13.2401 10.3067C12.9468 10.08 12.5801 9.92001 12.1468 9.82001C11.8801 9.76001 11.7068 9.49335 11.7668 9.22001C11.8268 8.95335 12.0934 8.78001 12.3668 8.84001C12.9401 8.96668 13.4401 9.19335 13.8468 9.50668C14.4668 9.97335 14.8201 10.6333 14.8201 11.3267C14.8201 12.02 14.4601 12.68 13.8401 13.1533C13.4268 13.4733 12.9068 13.7067 12.3334 13.82C12.2934 13.8333 12.2601 13.8333 12.2268 13.8333Z" fill="#EFEDF1"/>
</svg>
