<svg width="16" height="16" viewBox="0 0 16 16" fill="none" xmlns="http://www.w3.org/2000/svg">
<path d="M5.51203 15.1673H2.8187C1.4787 15.1673 0.832031 14.5473 0.832031 13.2673V2.73398C0.832031 1.45398 1.48536 0.833984 2.8187 0.833984H5.51203C6.85203 0.833984 7.4987 1.45398 7.4987 2.73398V13.2673C7.4987 14.5473 6.84536 15.1673 5.51203 15.1673ZM2.8187 1.83398C1.97203 1.83398 1.83203 2.06065 1.83203 2.73398V13.2673C1.83203 13.9407 1.97203 14.1673 2.8187 14.1673H5.51203C6.3587 14.1673 6.4987 13.9407 6.4987 13.2673V2.73398C6.4987 2.06065 6.3587 1.83398 5.51203 1.83398H2.8187V1.83398Z" fill="#EFEDF1"/>
<path d="M13.18 7.50065H10.4867C9.14667 7.50065 8.5 6.90732 8.5 5.68065V2.65398C8.5 1.42732 9.15333 0.833984 10.4867 0.833984H13.18C14.52 0.833984 15.1667 1.42732 15.1667 2.65398V5.67398C15.1667 6.90732 14.5133 7.50065 13.18 7.50065ZM10.4867 1.83398C9.59333 1.83398 9.5 2.08732 9.5 2.65398V5.67398C9.5 6.24732 9.59333 6.49398 10.4867 6.49398H13.18C14.0733 6.49398 14.1667 6.24065 14.1667 5.67398V2.65398C14.1667 2.08065 14.0733 1.83398 13.18 1.83398H10.4867Z" fill="#EFEDF1"/>
<path d="M13.18 15.1667H10.4867C9.14667 15.1667 8.5 14.5133 8.5 13.18V10.4867C8.5 9.14667 9.15333 8.5 10.4867 8.5H13.18C14.52 8.5 15.1667 9.15333 15.1667 10.4867V13.18C15.1667 14.5133 14.5133 15.1667 13.18 15.1667ZM10.4867 9.5C9.7 9.5 9.5 9.7 9.5 10.4867V13.18C9.5 13.9667 9.7 14.1667 10.4867 14.1667H13.18C13.9667 14.1667 14.1667 13.9667 14.1667 13.18V10.4867C14.1667 9.7 13.9667 9.5 13.18 9.5H10.4867Z" fill="#EFEDF1"/>
</svg>
