<svg width="15" height="16" viewBox="0 0 15 16" fill="none" xmlns="http://www.w3.org/2000/svg">
<path fill-rule="evenodd" clip-rule="evenodd" d="M7.18599 15.4994C6.16974 15.4994 5.17899 15.4881 4.19874 15.4679C2.94474 15.4431 2.07699 14.6301 1.93524 13.3461C1.69899 11.2161 1.29474 6.19563 1.29099 6.14538C1.26549 5.83563 1.49649 5.56413 1.80624 5.53938C2.11149 5.53113 2.38749 5.74563 2.41224 6.05463C2.41599 6.10563 2.81949 11.1089 3.05349 13.2224C3.13374 13.9521 3.52749 14.3286 4.22199 14.3429C6.09699 14.3826 8.01024 14.3849 10.0727 14.3474C10.8107 14.3331 11.2097 13.9641 11.2922 13.2171C11.5247 11.1216 11.9297 6.10563 11.9342 6.05463C11.959 5.74563 12.2327 5.52963 12.5395 5.53938C12.8492 5.56488 13.0802 5.83563 13.0555 6.14538C13.051 6.19638 12.6445 11.2296 12.4105 13.3409C12.265 14.6511 11.3995 15.4484 10.093 15.4724C9.09324 15.4896 8.12874 15.4994 7.18599 15.4994" fill="#F98080"/>
<path fill-rule="evenodd" clip-rule="evenodd" d="M13.531 4.24219H0.8125C0.502 4.24219 0.25 3.99019 0.25 3.67969C0.25 3.36919 0.502 3.11719 0.8125 3.11719H13.531C13.8415 3.11719 14.0935 3.36919 14.0935 3.67969C14.0935 3.99019 13.8415 4.24219 13.531 4.24219" fill="#F98080"/>
<path fill-rule="evenodd" clip-rule="evenodd" d="M11.079 4.24175C10.2255 4.24175 9.48447 3.6335 9.31647 2.7965L9.13422 1.8845C9.09597 1.74575 8.93772 1.625 8.75772 1.625H5.58297C5.40297 1.625 5.24472 1.74575 5.19897 1.919L5.02422 2.7965C4.85697 3.6335 4.11522 4.24175 3.26172 4.24175C2.95122 4.24175 2.69922 3.98975 2.69922 3.67925C2.69922 3.36875 2.95122 3.11675 3.26172 3.11675C3.58122 3.11675 3.85872 2.88875 3.92172 2.57525L4.10397 1.66325C4.28922 0.96425 4.89447 0.5 5.58297 0.5H8.75772C9.44622 0.5 10.0515 0.96425 10.2292 1.6295L10.4197 2.57525C10.482 2.88875 10.7595 3.11675 11.079 3.11675C11.3895 3.11675 11.6415 3.36875 11.6415 3.67925C11.6415 3.98975 11.3895 4.24175 11.079 4.24175" fill="#F98080"/>
</svg>
