<svg width="20" height="20" viewBox="0 0 20 20" fill="none" xmlns="http://www.w3.org/2000/svg">
<path
    fill-rule="evenodd"
    clip-rule="evenodd"
    d="M8.40006 15.4941H3.14923C2.80423 15.4941 2.52423 15.2141 2.52423 14.8691C2.52423 14.5241 2.80423 14.2441 3.14923 14.2441H8.40006C8.74506 14.2441 9.02506 14.5241 9.02506 14.8691C9.02506 15.2141 8.74506 15.4941 8.40006 15.4941"
    fill="#C69A71"
  />
<path
    fill-rule="evenodd"
    clip-rule="evenodd"
    d="M15.9924 7.41797H10.7424C10.3974 7.41797 10.1174 7.13797 10.1174 6.79297C10.1174 6.44797 10.3974 6.16797 10.7424 6.16797H15.9924C16.3374 6.16797 16.6174 6.44797 16.6174 6.79297C16.6174 7.13797 16.3374 7.41797 15.9924 7.41797"
    fill="#C69A71"
  />
<mask
    id="mask0_509_4079"
    style="mask-type:luminance"
    maskUnits="userSpaceOnUse"
    x="2"
    y="4"
    width="6"
    height="6"
  >
<path
      fill-rule="evenodd"
      clip-rule="evenodd"
      d="M2.5 4.16797H7.68817V9.32764H2.5V4.16797Z"
      fill="#C69A71"
    />
</mask>
<g mask="url(#mask0_509_4079)">
<path
      fill-rule="evenodd"
      clip-rule="evenodd"
      d="M5.09398 5.41797C4.35315 5.41797 3.74982 6.01464 3.74982 6.7488C3.74982 7.48214 4.35315 8.07797 5.09398 8.07797C5.83565 8.07797 6.43815 7.48214 6.43815 6.7488C6.43815 6.01464 5.83565 5.41797 5.09398 5.41797M5.09398 9.32797C3.66398 9.32797 2.49982 8.1713 2.49982 6.7488C2.49982 5.3263 3.66398 4.16797 5.09398 4.16797C6.52482 4.16797 7.68815 5.3263 7.68815 6.7488C7.68815 8.1713 6.52482 9.32797 5.09398 9.32797"
      fill="#C69A71"
    />
</g>
<path
    fill-rule="evenodd"
    clip-rule="evenodd"
    d="M14.4898 13.5078C13.7481 13.5078 13.1448 14.1045 13.1448 14.8378C13.1448 15.572 13.7481 16.1678 14.4898 16.1678C15.2306 16.1678 15.8331 15.572 15.8331 14.8378C15.8331 14.1045 15.2306 13.5078 14.4898 13.5078M14.4898 17.4178C13.0589 17.4178 11.8948 16.2603 11.8948 14.8378C11.8948 13.4153 13.0589 12.2578 14.4898 12.2578C15.9198 12.2578 17.0831 13.4153 17.0831 14.8378C17.0831 16.2603 15.9198 17.4178 14.4898 17.4178"
    fill="#C69A71"
  />
</svg>
