<svg width="16" height="16" viewBox="0 0 16 16" fill="none" xmlns="http://www.w3.org/2000/svg">
<path fill-rule="evenodd" clip-rule="evenodd" d="M7.5486 14.6673H4.29127C2.66194 14.6673 1.33594 13.3413 1.33594 11.7107V4.29132C1.33594 2.66065 2.66194 1.33398 4.29127 1.33398H7.54127C9.17194 1.33398 10.4986 2.66065 10.4986 4.29132V4.91265C10.4986 5.18865 10.2746 5.41265 9.9986 5.41265C9.7226 5.41265 9.4986 5.18865 9.4986 4.91265V4.29132C9.4986 3.21132 8.6206 2.33398 7.54127 2.33398H4.29127C3.21327 2.33398 2.33594 3.21132 2.33594 4.29132V11.7107C2.33594 12.79 3.21327 13.6673 4.29127 13.6673H7.5486C8.62327 13.6673 9.4986 12.7927 9.4986 11.718V11.0893C9.4986 10.8133 9.7226 10.5893 9.9986 10.5893C10.2746 10.5893 10.4986 10.8133 10.4986 11.0893V11.718C10.4986 13.3447 9.1746 14.6673 7.5486 14.6673" fill="#F98080"/>
<mask id="mask0_4305_26716" style="mask-type:luminance" maskUnits="userSpaceOnUse" x="6" y="7" width="10" height="2">
<path fill-rule="evenodd" clip-rule="evenodd" d="M6 7.5H15.0273V8.5H6V7.5Z" fill="white"/>
</mask>
<g mask="url(#mask0_4305_26716)">
<path fill-rule="evenodd" clip-rule="evenodd" d="M14.5273 8.5H6.5C6.224 8.5 6 8.276 6 8C6 7.724 6.224 7.5 6.5 7.5H14.5273C14.8033 7.5 15.0273 7.724 15.0273 8C15.0273 8.276 14.8033 8.5 14.5273 8.5" fill="#F98080"/>
</g>
<mask id="mask1_4305_26716" style="mask-type:luminance" maskUnits="userSpaceOnUse" x="12" y="5" width="4" height="6">
<path fill-rule="evenodd" clip-rule="evenodd" d="M12.0781 5.55664H15.0297V10.4438H12.0781V5.55664Z" fill="white"/>
</mask>
<g mask="url(#mask1_4305_26716)">
<path fill-rule="evenodd" clip-rule="evenodd" d="M12.578 10.4438C12.45 10.4438 12.3213 10.3951 12.224 10.2965C12.0293 10.1005 12.03 9.78447 12.2253 9.58981L13.8213 7.99981L12.2253 6.41047C12.03 6.21581 12.0286 5.89981 12.224 5.70381C12.4186 5.50781 12.7346 5.50781 12.9306 5.70247L14.8826 7.64581C14.9773 7.73914 15.03 7.86714 15.03 7.99981C15.03 8.13247 14.9773 8.26047 14.8826 8.35381L12.9306 10.2978C12.8333 10.3951 12.7053 10.4438 12.578 10.4438" fill="#F98080"/>
</g>
</svg>
