<svg width="20" height="20" viewBox="0 0 20 20" fill="none" xmlns="http://www.w3.org/2000/svg">
<path fill-rule="evenodd" clip-rule="evenodd" d="M6.05217 2.71835C6.15182 1.77667 6.94856 1.04297 7.91667 1.04297H12.0833C13.0514 1.04297 13.8482 1.77667 13.9478 2.71835C14.5837 2.73129 15.1336 2.76419 15.603 2.85042C16.2347 2.96645 16.7723 3.18749 17.2097 3.62493C17.7113 4.12652 17.9271 4.75809 18.0279 5.50818C18.125 6.23065 18.125 7.14925 18.125 8.28891V13.3804C18.125 14.52 18.125 15.4386 18.0279 16.1611C17.9271 16.9112 17.7113 17.5427 17.2097 18.0443C16.7081 18.5459 16.0765 18.7617 15.3265 18.8625C14.604 18.9597 13.6854 18.9597 12.5457 18.9596H7.45428C6.31462 18.9597 5.39601 18.9597 4.67354 18.8625C3.92345 18.7617 3.29189 18.5459 2.79029 18.0443C2.2887 17.5427 2.07295 16.9112 1.9721 16.1611C1.87497 15.4386 1.87498 14.52 1.875 13.3804V8.28891C1.87498 7.14925 1.87497 6.23065 1.9721 5.50818C2.07295 4.75809 2.2887 4.12652 2.79029 3.62493C3.22773 3.18749 3.7653 2.96645 4.39696 2.85042C4.86644 2.76419 5.41627 2.73129 6.05217 2.71835ZM6.05414 3.96869C5.45565 3.98147 4.99447 4.01158 4.62279 4.07986C4.15045 4.16662 3.87705 4.30593 3.67418 4.50881C3.44354 4.73945 3.29317 5.06326 3.21096 5.67474C3.12633 6.30419 3.125 7.13846 3.125 8.33464V13.3346C3.125 14.5308 3.12633 15.3651 3.21096 15.9945C3.29317 16.606 3.44354 16.9298 3.67418 17.1605C3.90481 17.3911 4.22862 17.5415 4.8401 17.6237C5.46956 17.7083 6.30382 17.7096 7.5 17.7096H12.5C13.6962 17.7096 14.5304 17.7083 15.1599 17.6237C15.7714 17.5415 16.0952 17.3911 16.3258 17.1605C16.5565 16.9298 16.7068 16.606 16.789 15.9945C16.8737 15.3651 16.875 14.5308 16.875 13.3346V8.33464C16.875 7.13846 16.8737 6.30419 16.789 5.67474C16.7068 5.06326 16.5565 4.73945 16.3258 4.50881C16.1229 4.30593 15.8496 4.16662 15.3772 4.07986C15.0055 4.01158 14.5443 3.98147 13.9459 3.96869C13.8381 4.90182 13.0453 5.6263 12.0833 5.6263H7.91667C6.95466 5.6263 6.16187 4.90182 6.05414 3.96869ZM7.91667 2.29297C7.57149 2.29297 7.29167 2.57279 7.29167 2.91797V3.7513C7.29167 4.09648 7.57149 4.3763 7.91667 4.3763H12.0833C12.4285 4.3763 12.7083 4.09648 12.7083 3.7513V2.91797C12.7083 2.57279 12.4285 2.29297 12.0833 2.29297H7.91667ZM5.20833 8.7513C5.20833 8.40612 5.48816 8.1263 5.83333 8.1263H14.1667C14.5118 8.1263 14.7917 8.40612 14.7917 8.7513C14.7917 9.09648 14.5118 9.3763 14.1667 9.3763H5.83333C5.48816 9.3763 5.20833 9.09648 5.20833 8.7513ZM6.04167 11.668C6.04167 11.3228 6.32149 11.043 6.66667 11.043H13.3333C13.6785 11.043 13.9583 11.3228 13.9583 11.668C13.9583 12.0131 13.6785 12.293 13.3333 12.293H6.66667C6.32149 12.293 6.04167 12.0131 6.04167 11.668ZM6.875 14.5846C6.875 14.2395 7.15482 13.9596 7.5 13.9596H12.5C12.8452 13.9596 13.125 14.2395 13.125 14.5846C13.125 14.9298 12.8452 15.2096 12.5 15.2096H7.5C7.15482 15.2096 6.875 14.9298 6.875 14.5846Z" fill="#EFEDF1"/>
</svg>
