<svg width="16" height="16" viewBox="0 0 16 16" fill="none" xmlns="http://www.w3.org/2000/svg">
<path d="M5.45176 11.1792C5.43843 11.1792 5.41844 11.1792 5.4051 11.1792C4.75844 11.1192 4.15177 10.8193 3.69844 10.3393C2.63177 9.21925 2.63177 7.39926 3.69844 6.27926L5.15844 4.74591C5.67844 4.19924 6.37844 3.89258 7.1251 3.89258C7.87177 3.89258 8.57177 4.19258 9.09177 4.74591C10.1584 5.86591 10.1584 7.68591 9.09177 8.80591L8.3651 9.57257C8.17177 9.77257 7.85844 9.77926 7.65844 9.59259C7.45844 9.39926 7.45177 9.08591 7.63844 8.88591L8.3651 8.11924C9.07177 7.37924 9.07177 6.17258 8.3651 5.43925C7.7051 4.74592 6.54511 4.74592 5.87844 5.43925L4.41844 6.97257C3.71177 7.71257 3.71177 8.91925 4.41844 9.65259C4.70511 9.95925 5.09177 10.1459 5.49844 10.1859C5.77177 10.2126 5.97177 10.4593 5.9451 10.7326C5.9251 10.9859 5.7051 11.1792 5.45176 11.1792Z" fill="#EFEDF1"/>
<path d="M8.87213 12.1066C8.12547 12.1066 7.42547 11.8066 6.90547 11.2533C5.8388 10.1333 5.8388 8.31327 6.90547 7.19327L7.63213 6.42661C7.82547 6.22661 8.1388 6.21992 8.3388 6.40659C8.5388 6.59992 8.54546 6.91327 8.3588 7.11327L7.63213 7.87994C6.92547 8.61994 6.92547 9.8266 7.63213 10.5599C8.29213 11.2533 9.45213 11.2599 10.1188 10.5599L11.5788 9.0266C12.2855 8.2866 12.2855 7.07992 11.5788 6.34659C11.2921 6.03992 10.9055 5.85327 10.4988 5.81327C10.2255 5.7866 10.0255 5.53993 10.0521 5.26659C10.0788 4.99326 10.3188 4.78661 10.5988 4.81994C11.2455 4.88661 11.8521 5.17993 12.3055 5.65993C13.3721 6.77993 13.3721 8.59992 12.3055 9.71992L10.8455 11.2533C10.3188 11.8066 9.6188 12.1066 8.87213 12.1066Z" fill="#EFEDF1"/>
<path d="M9.9987 15.1673H5.9987C2.3787 15.1673 0.832031 13.6207 0.832031 10.0007V6.00065C0.832031 2.38065 2.3787 0.833984 5.9987 0.833984H9.9987C13.6187 0.833984 15.1654 2.38065 15.1654 6.00065V10.0007C15.1654 13.6207 13.6187 15.1673 9.9987 15.1673ZM5.9987 1.83398C2.92536 1.83398 1.83203 2.92732 1.83203 6.00065V10.0007C1.83203 13.074 2.92536 14.1673 5.9987 14.1673H9.9987C13.072 14.1673 14.1654 13.074 14.1654 10.0007V6.00065C14.1654 2.92732 13.072 1.83398 9.9987 1.83398H5.9987Z" fill="#EFEDF1"/>
</svg>
