<svg width="16" height="16" viewBox="0 0 16 16" fill="none" xmlns="http://www.w3.org/2000/svg">
<path d="M7.99827 8.86592C7.9116 8.86592 7.82493 8.84594 7.74493 8.79927L1.85827 5.39262C1.61827 5.25262 1.53826 4.94593 1.67826 4.70593C1.81826 4.46593 2.11826 4.38592 2.36493 4.52592L7.99827 7.78593L13.5983 4.54594C13.8383 4.40594 14.1449 4.49262 14.2849 4.72595C14.4249 4.96595 14.3383 5.27259 14.1049 5.41259L8.25828 8.79927C8.17161 8.83927 8.08493 8.86592 7.99827 8.86592Z" fill="#EFEDF1"/>
<path d="M8 14.906C7.72667 14.906 7.5 14.6794 7.5 14.406V8.35937C7.5 8.08604 7.72667 7.85938 8 7.85938C8.27333 7.85938 8.5 8.08604 8.5 8.35937V14.406C8.5 14.6794 8.27333 14.906 8 14.906Z" fill="#EFEDF1"/>
<path d="M8.00041 15.1673C7.41374 15.1673 6.83374 15.0406 6.37374 14.7873L2.81374 12.8073C1.84707 12.274 1.09375 10.9873 1.09375 9.88065V6.11397C1.09375 5.0073 1.84707 3.72733 2.81374 3.18733L6.37374 1.21398C7.28707 0.707318 8.71374 0.707318 9.62707 1.21398L13.1871 3.19396C14.1537 3.7273 14.9071 5.01397 14.9071 6.12064V9.88732C14.9071 10.994 14.1537 12.274 13.1871 12.814L9.62707 14.7873C9.16707 15.0406 8.58707 15.1673 8.00041 15.1673ZM8.00041 1.83398C7.58041 1.83398 7.16708 1.92065 6.86041 2.08732L3.30041 4.0673C2.66041 4.4273 2.09375 5.38064 2.09375 6.12064V9.88732C2.09375 10.6207 2.66041 11.5806 3.30041 11.9406L6.86041 13.9206C7.46708 14.2606 8.53373 14.2606 9.1404 13.9206L12.7004 11.9406C13.3404 11.5806 13.9071 10.6273 13.9071 9.88732V6.12064C13.9071 5.38731 13.3404 4.4273 12.7004 4.0673L9.1404 2.08732C8.83373 1.92065 8.42041 1.83398 8.00041 1.83398Z" fill="#EFEDF1"/>
<path d="M11.3328 9.32637C11.0595 9.32637 10.8328 9.09971 10.8328 8.82637V6.67973L4.7528 3.17305C4.5128 3.03305 4.43279 2.72637 4.57279 2.49304C4.71279 2.25304 5.0128 2.17303 5.2528 2.31303L11.5795 5.96639C11.7328 6.05305 11.8328 6.2197 11.8328 6.3997V8.83972C11.8328 9.09972 11.6061 9.32637 11.3328 9.32637Z" fill="#EFEDF1"/>
</svg>
