<svg width="16" height="16" viewBox="0 0 16 16" fill="none" xmlns="http://www.w3.org/2000/svg">
<mask id="mask0_4305_26713" style="mask-type:luminance" maskUnits="userSpaceOnUse" x="2" y="9" width="12" height="6">
<path fill-rule="evenodd" clip-rule="evenodd" d="M2.66406 9.66406H13.224V14.5801H2.66406V9.66406Z" fill="white"/>
</mask>
<g mask="url(#mask0_4305_26713)">
<path fill-rule="evenodd" clip-rule="evenodd" d="M7.94473 10.6641C5.10406 10.6641 3.66406 11.1521 3.66406 12.1154C3.66406 13.0874 5.10406 13.5801 7.94473 13.5801C10.7847 13.5801 12.2241 13.0921 12.2241 12.1287C12.2241 11.1567 10.7847 10.6641 7.94473 10.6641M7.94473 14.5801C6.63873 14.5801 2.66406 14.5801 2.66406 12.1154C2.66406 9.91806 5.67806 9.66406 7.94473 9.66406C9.25073 9.66406 13.2241 9.66406 13.2241 12.1287C13.2241 14.3261 10.2107 14.5801 7.94473 14.5801" fill="#EFEDF1"/>
</g>
<mask id="mask1_4305_26713" style="mask-type:luminance" maskUnits="userSpaceOnUse" x="4" y="1" width="8" height="8">
<path fill-rule="evenodd" clip-rule="evenodd" d="M4.40625 1.33398H11.4863V8.41305H4.40625V1.33398Z" fill="white"/>
</mask>
<g mask="url(#mask1_4305_26713)">
<path fill-rule="evenodd" clip-rule="evenodd" d="M7.94694 2.28598C6.5196 2.28598 5.35827 3.44665 5.35827 4.87398C5.3536 6.29665 6.50627 7.45665 7.9276 7.46198L7.94694 7.93798V7.46198C9.3736 7.46198 10.5343 6.30065 10.5343 4.87398C10.5343 3.44665 9.3736 2.28598 7.94694 2.28598M7.94694 8.41332H7.9256C5.9776 8.40732 4.3996 6.81865 4.40627 4.87198C4.40627 2.92198 5.99427 1.33398 7.94694 1.33398C9.89894 1.33398 11.4863 2.92198 11.4863 4.87398C11.4863 6.82598 9.89894 8.41332 7.94694 8.41332" fill="#EFEDF1"/>
</g>
</svg>
