<svg width="25" height="24" viewBox="0 0 25 24" fill="none" xmlns="http://www.w3.org/2000/svg">
<path
    d="M12.505 4C14.7151 4 16.7128 4.89397 18.1585 6.34L20.5 4V11H13.4956L16.7176 7.78C15.6379 6.6909 14.1585 6.00114 12.4991 6C9.89003 6.00251 7.67137 7.67175 6.85147 10H6.83378C6.71976 10.3217 6.63245 10.6559 6.57452 11H4.5617C5.05243 7.05239 8.41112 4 12.495 4H12.505Z"
    fill="#9791A1"
  />
<path
    d="M4.5 13V20L6.84146 17.66C8.28717 19.106 10.2849 20 12.495 20L12.505 20C16.5889 20 19.9476 16.9476 20.4383 13H18.4255C18.3676 13.3441 18.2802 13.6783 18.1662 14H18.1485C17.3287 16.3282 15.1101 17.9974 12.5012 18C10.8417 17.9989 9.36221 17.3092 8.28236 16.22L11.5044 13H4.5Z"
    fill="#9791A1"
  />
</svg>
