<svg width="20" height="20" viewBox="0 0 20 20" fill="none" xmlns="http://www.w3.org/2000/svg">
<path fill-rule="evenodd" clip-rule="evenodd" d="M18.957 11.6328H1.45703C1.11203 11.6328 0.832031 11.3528 0.832031 11.0078C0.832031 10.6628 1.11203 10.3828 1.45703 10.3828H18.957C19.302 10.3828 19.582 10.6628 19.582 11.0078C19.582 11.3528 19.302 11.6328 18.957 11.6328" fill="#EFEDF1"/>
<path fill-rule="evenodd" clip-rule="evenodd" d="M17.4002 8.12083C17.0552 8.12083 16.7752 7.84083 16.7752 7.49583V6.23417C16.7752 4.865 15.6602 3.75 14.2893 3.75H13.2852C12.9402 3.75 12.6602 3.47 12.6602 3.125C12.6602 2.78 12.9402 2.5 13.2852 2.5H14.2893C16.3493 2.5 18.0252 4.17583 18.0252 6.23417V7.49583C18.0252 7.84083 17.7452 8.12083 17.4002 8.12083" fill="#EFEDF1"/>
<path fill-rule="evenodd" clip-rule="evenodd" d="M3.01562 8.12083C2.67062 8.12083 2.39062 7.84083 2.39062 7.49583V6.23417C2.39062 4.17583 4.06646 2.5 6.12646 2.5H7.15646C7.50146 2.5 7.78146 2.78 7.78146 3.125C7.78146 3.47 7.50146 3.75 7.15646 3.75H6.12646C4.75562 3.75 3.64062 4.865 3.64062 6.23417V7.49583C3.64062 7.84083 3.36062 8.12083 3.01562 8.12083" fill="#EFEDF1"/>
<path fill-rule="evenodd" clip-rule="evenodd" d="M14.2893 18.1308H13.2852C12.9402 18.1308 12.6602 17.8508 12.6602 17.5058C12.6602 17.1608 12.9402 16.8808 13.2852 16.8808H14.2893C15.6602 16.8808 16.7752 15.7658 16.7752 14.3958V11C16.7752 10.655 17.0552 10.375 17.4002 10.375C17.7452 10.375 18.0252 10.655 18.0252 11V14.3958C18.0252 16.455 16.3493 18.1308 14.2893 18.1308" fill="#EFEDF1"/>
<path fill-rule="evenodd" clip-rule="evenodd" d="M7.15646 18.1308H6.12646C4.06646 18.1308 2.39062 16.455 2.39062 14.3958V11C2.39062 10.655 2.67062 10.375 3.01562 10.375C3.36062 10.375 3.64062 10.655 3.64062 11V14.3958C3.64062 15.7658 4.75562 16.8808 6.12646 16.8808H7.15646C7.50146 16.8808 7.78146 17.1608 7.78146 17.5058C7.78146 17.8508 7.50146 18.1308 7.15646 18.1308" fill="#EFEDF1"/>
</svg>
