<svg width="16" height="16" viewBox="0 0 16 16" fill="none" xmlns="http://www.w3.org/2000/svg">
<path d="M8.0013 12.0073C5.88797 12.0073 4.16797 10.2873 4.16797 8.17399C4.16797 7.41399 4.38797 6.67398 4.81464 6.04732C4.96797 5.82065 5.2813 5.75398 5.50797 5.90732C5.73463 6.06065 5.8013 6.37399 5.64797 6.60065C5.33464 7.06732 5.17463 7.61399 5.17463 8.17399C5.17463 9.73399 6.44797 11.0073 8.00797 11.0073C9.56797 11.0073 10.8413 9.73399 10.8413 8.17399C10.8413 6.61399 9.56797 5.34065 8.00797 5.34065C7.67463 5.34065 7.35463 5.38732 7.0413 5.48065C6.7813 5.56065 6.5013 5.41399 6.41463 5.14732C6.33463 4.88065 6.4813 4.60065 6.74797 4.52065C7.15463 4.39398 7.57463 4.33398 8.00797 4.33398C10.1213 4.33398 11.8413 6.05398 11.8413 8.16732C11.8413 10.2807 10.1146 12.0073 8.0013 12.0073Z" fill="#EFEDF1"/>
<path d="M6.41404 5.60024C6.30071 5.60024 6.18071 5.56024 6.08738 5.48024C5.88071 5.30024 5.86071 4.98024 6.04071 4.77357L7.15404 3.50024C7.33404 3.29357 7.65404 3.2669 7.86071 3.45357C8.06737 3.63357 8.08738 3.95357 7.90738 4.16024L6.79405 5.43357C6.68738 5.54024 6.55404 5.60024 6.41404 5.60024Z" fill="#EFEDF1"/>
<path d="M7.70521 6.54604C7.60521 6.54604 7.49854 6.51271 7.41187 6.45271L6.11854 5.50605C5.89854 5.34605 5.84521 5.03271 6.01188 4.80604C6.17188 4.58604 6.48522 4.53271 6.71188 4.69938L8.00521 5.64604C8.22521 5.80604 8.27854 6.11937 8.11188 6.34604C8.01188 6.47271 7.85854 6.54604 7.70521 6.54604Z" fill="#EFEDF1"/>
<path d="M9.9987 15.1673H5.9987C2.3787 15.1673 0.832031 13.6207 0.832031 10.0007V6.00065C0.832031 2.38065 2.3787 0.833984 5.9987 0.833984H9.9987C13.6187 0.833984 15.1654 2.38065 15.1654 6.00065V10.0007C15.1654 13.6207 13.6187 15.1673 9.9987 15.1673ZM5.9987 1.83398C2.92536 1.83398 1.83203 2.92732 1.83203 6.00065V10.0007C1.83203 13.074 2.92536 14.1673 5.9987 14.1673H9.9987C13.072 14.1673 14.1654 13.074 14.1654 10.0007V6.00065C14.1654 2.92732 13.072 1.83398 9.9987 1.83398H5.9987Z" fill="#EFEDF1"/>
</svg>
