<svg width="21" height="21" viewBox="0 0 21 21" fill="none" xmlns="http://www.w3.org/2000/svg">
<g clip-path="url(#clip0_4147_40959)">
<path d="M17.4318 4.12305C16.1571 3.53815 14.7901 3.10722 13.3609 2.86041C13.3349 2.85565 13.3089 2.86755 13.2955 2.89136C13.1197 3.20404 12.9249 3.61195 12.7886 3.93257C11.2513 3.70243 9.72196 3.70243 8.21624 3.93257C8.07985 3.60483 7.87805 3.20404 7.70146 2.89136C7.68805 2.86835 7.66205 2.85644 7.63602 2.86041C6.20757 3.10643 4.84061 3.53736 3.56509 4.12305C3.55405 4.12781 3.54458 4.13576 3.5383 4.14607C0.94547 8.0197 0.235185 11.7981 0.583627 15.5297C0.585203 15.548 0.595451 15.5654 0.609642 15.5765C2.32032 16.8328 3.9774 17.5955 5.60371 18.101C5.62974 18.1089 5.65731 18.0994 5.67388 18.078C6.05858 17.5526 6.40151 16.9987 6.69554 16.4162C6.71289 16.382 6.69633 16.3416 6.66086 16.3281C6.11692 16.1217 5.59898 15.8702 5.10075 15.5845C5.06134 15.5614 5.05819 15.5051 5.09444 15.4781C5.19929 15.3995 5.30416 15.3178 5.40427 15.2352C5.42239 15.2202 5.44762 15.217 5.46892 15.2265C8.74205 16.7209 12.2856 16.7209 15.5201 15.2265C15.5414 15.2162 15.5666 15.2194 15.5855 15.2345C15.6857 15.317 15.7905 15.3995 15.8962 15.4781C15.9324 15.5051 15.93 15.5614 15.8906 15.5845C15.3924 15.8757 14.8745 16.1217 14.3297 16.3273C14.2943 16.3408 14.2785 16.382 14.2959 16.4162C14.5962 16.9979 14.9391 17.5518 15.3167 18.0772C15.3325 18.0994 15.3609 18.1089 15.3869 18.101C17.0211 17.5955 18.6782 16.8328 20.3888 15.5765C20.4038 15.5654 20.4133 15.5487 20.4149 15.5305C20.8319 11.2164 19.7164 7.46894 17.4578 4.14686C17.4523 4.13576 17.4429 4.12781 17.4318 4.12305ZM7.18433 13.2576C6.19889 13.2576 5.38692 12.3529 5.38692 11.2418C5.38692 10.1307 6.18315 9.22601 7.18433 9.22601C8.19337 9.22601 8.99748 10.1387 8.98171 11.2418C8.98171 12.3529 8.18548 13.2576 7.18433 13.2576ZM13.8299 13.2576C12.8445 13.2576 12.0326 12.3529 12.0326 11.2418C12.0326 10.1307 12.8288 9.22601 13.8299 9.22601C14.839 9.22601 15.6431 10.1387 15.6273 11.2418C15.6273 12.3529 14.839 13.2576 13.8299 13.2576Z" fill="#9791A1"/>
</g>
<defs>
<clipPath id="clip0_4147_40959">
<rect width="20" height="20" fill="white" transform="translate(0.500977 0.660156)"/>
</clipPath>
</defs>
</svg>
