<svg width="25" height="25" viewBox="0 0 25 25" fill="none" xmlns="http://www.w3.org/2000/svg">
<g clip-path="url(#clip0_4028_15425)">
<path fill-rule="evenodd" clip-rule="evenodd" d="M12.5099 0.660156C5.86875 0.660156 0.5 6.06848 0.5 12.7593C0.5 18.1077 3.93994 22.6349 8.71205 24.2373C9.30869 24.3577 9.52724 23.9769 9.52724 23.6566C9.52724 23.3761 9.50757 22.4147 9.50757 21.4129C6.1667 22.1342 5.47099 19.9706 5.47099 19.9706C4.93409 18.5684 4.13858 18.208 4.13858 18.208C3.04511 17.4668 4.21823 17.4668 4.21823 17.4668C5.43117 17.5469 6.06763 18.7087 6.06763 18.7087C7.14118 20.5515 8.87111 20.0308 9.56706 19.7103C9.66638 18.929 9.98473 18.3882 10.3228 18.0878C7.65817 17.8073 4.85469 16.7657 4.85469 12.1182C4.85469 10.7961 5.3316 9.71443 6.08729 8.87319C5.96807 8.57279 5.5504 7.33059 6.20677 5.66802C6.20677 5.66802 7.22083 5.34746 9.50732 6.90997C10.4863 6.64513 11.4958 6.5104 12.5099 6.50926C13.524 6.50926 14.5577 6.64963 15.5123 6.90997C17.799 5.34746 18.8131 5.66802 18.8131 5.66802C19.4695 7.33059 19.0515 8.57279 18.9323 8.87319C19.7079 9.71443 20.1652 10.7961 20.1652 12.1182C20.1652 16.7657 17.3617 17.7871 14.6772 18.0878C15.1148 18.4683 15.4924 19.1893 15.4924 20.3312C15.4924 21.9537 15.4727 23.2559 15.4727 23.6564C15.4727 23.9769 15.6915 24.3577 16.2879 24.2375C21.06 22.6347 24.4999 18.1077 24.4999 12.7593C24.5196 6.06848 19.1312 0.660156 12.5099 0.660156Z" fill="#9791A1"/>
</g>
<defs>
<clipPath id="clip0_4028_15425">
<rect width="24" height="24" fill="white" transform="translate(0.5 0.660156)"/>
</clipPath>
</defs>
</svg>
