<svg width="21" height="21" viewBox="0 0 21 21" fill="none" xmlns="http://www.w3.org/2000/svg">
<path fill-rule="evenodd" clip-rule="evenodd" d="M9.97768 0.672616C8.84095 0.728408 7.64022 1.0064 6.57907 1.45943C5.44475 1.94371 4.40265 2.64019 3.52039 3.50371C2.79339 4.21524 2.21493 4.97479 1.73153 5.85255C0.548466 8.00079 0.201069 10.5496 0.764946 12.9443C1.10734 14.3983 1.74087 15.7041 2.6778 16.887C3.12848 17.4559 3.70705 18.0346 4.27334 18.4826C4.74029 18.8521 5.18954 19.1515 5.69298 19.4288C7.56979 20.4624 9.74811 20.8619 11.8827 20.5642C13.663 20.3159 15.2988 19.613 16.7274 18.4826C17.7469 17.6759 18.6294 16.629 19.2692 15.4673C20.4523 13.3191 20.7997 10.7703 20.2358 8.37562C19.8934 6.92155 19.2614 5.61875 18.3231 4.43292C17.601 3.52031 16.6602 2.69498 15.6498 2.08759C13.944 1.06227 11.9868 0.57399 9.97768 0.672616ZM14.9264 3.77208C14.6758 3.82913 14.5076 4.02963 14.4308 4.36287C14.3839 4.56664 14.3927 4.78129 14.4572 5.00368C14.5704 5.39433 14.7433 5.61786 15.2949 6.08677C15.7575 6.47998 15.9308 6.69146 15.9778 6.91996C16.0307 7.17734 15.9652 7.53372 15.8099 7.83451C15.7607 7.92968 15.7353 7.96207 15.6583 8.02769C15.4362 8.21708 15.2633 8.27828 14.9077 8.29345C14.5487 8.30877 14.3568 8.26217 13.5461 7.96278C13.1997 7.83485 12.743 7.68399 12.5676 7.63958C12.2872 7.56859 12.1825 7.5586 11.7974 7.56616C11.1583 7.57872 10.6308 7.67742 10.0099 7.90063C9.68278 8.01824 9.40878 8.14591 8.91796 8.40945C8.58261 8.58952 8.43574 8.64947 8.14949 8.72314C7.81245 8.80988 7.63559 8.83469 7.04163 8.87855C6.07406 8.95001 5.87736 8.97626 5.53821 9.07917C5.01517 9.23789 4.75084 9.45164 4.55041 9.87793C4.46666 10.056 4.44871 10.1139 4.42473 10.2836C4.38827 10.5414 4.42584 10.6763 4.57653 10.8288C4.72272 10.9767 4.93888 11.1232 5.30558 11.323C5.50367 11.4309 5.53519 11.4407 5.65227 11.431C5.76849 11.4213 5.86479 11.3822 6.02131 11.2811C6.40527 11.0329 6.69135 10.9476 7.09806 10.96C7.33426 10.9672 7.38727 10.9821 7.54154 11.0841C7.863 11.2966 8.13248 11.4111 8.70001 11.5762C9.21952 11.7273 9.22991 11.7307 9.29335 11.7709C9.36836 11.8185 9.37874 11.857 9.33456 11.9237C9.21874 12.0987 8.20608 12.9876 8.03537 13.0641C7.77599 13.1803 7.6177 13.3704 7.54417 13.6541C7.52878 13.7135 7.50495 13.7883 7.49123 13.8203C7.47752 13.8523 7.24687 14.1924 6.97868 14.5761C6.7105 14.9598 6.3979 15.4073 6.28401 15.5706C6.00567 15.9696 5.94945 16.0199 5.73705 16.0609C5.67732 16.0725 5.58561 16.0903 5.53325 16.1005C5.41135 16.1244 5.3195 16.1749 5.26871 16.2459C5.23454 16.2937 5.22809 16.3154 5.22398 16.3966C5.22087 16.4582 5.22758 16.5291 5.24313 16.5988C5.25631 16.6579 5.26671 16.7469 5.26625 16.7966C5.26549 16.8784 5.25893 16.9004 5.19731 17.0282C5.15985 17.1058 5.11131 17.222 5.08944 17.2863C5.05182 17.3969 5.04963 17.4143 5.04868 17.6097C5.04778 17.7967 5.05039 17.822 5.0762 17.8779C5.10597 17.9424 5.16505 17.9816 5.21665 17.9711C5.2302 17.9684 5.25707 17.9628 5.27638 17.9588C5.32923 17.9477 5.37037 17.8948 5.44258 17.7452C5.54175 17.5398 5.58721 17.4779 5.87403 17.158C5.93131 17.0941 6.00754 17.0041 6.04344 16.9579C6.16102 16.8068 6.83357 15.893 7.39782 15.1177C7.72287 14.6711 7.99092 14.3157 8.04763 14.2563C8.12876 14.1713 8.16317 14.146 8.26327 14.098C8.39393 14.0353 8.46798 13.9835 8.54998 13.8976C8.6089 13.8358 8.68658 13.6885 8.70054 13.6119C8.70542 13.5852 8.72473 13.5472 8.74343 13.5275C8.80432 13.4635 9.6148 12.8215 9.78452 12.7028C9.85306 12.6549 10.5211 12.3667 10.5336 12.3796C10.5353 12.3814 10.4497 12.5222 10.3433 12.6926C10.1105 13.0654 10.0004 13.2574 9.86146 13.5327C9.71803 13.8169 9.68752 13.923 9.68739 14.138C9.68733 14.2251 9.69315 14.2536 9.72447 14.3198C9.80965 14.4998 9.97733 14.5857 10.1658 14.5457C10.2043 14.5376 10.3345 14.4815 10.4552 14.421C10.6975 14.2997 10.6264 14.324 11.9523 13.9106C12.3916 13.7736 12.7721 13.6619 12.8133 13.6579C12.9188 13.6474 12.9396 13.6649 12.9839 13.8011C13.0517 14.0095 13.1447 14.0727 13.4131 14.093C13.576 14.1053 13.6369 14.1266 13.7268 14.2025C13.7881 14.2544 13.8859 14.303 13.9559 14.3164C14.0481 14.3342 14.135 14.2863 14.1512 14.2088C14.1682 14.1278 14.1441 14.0564 14.0469 13.9001C13.8576 13.5955 13.5161 13.0942 13.4642 13.0447C13.357 12.9426 13.1716 12.8822 13.0179 12.8994C12.9784 12.9039 12.8734 12.9277 12.7847 12.9525C12.6645 12.9861 10.6821 13.5885 10.5804 13.6224C10.5698 13.6259 10.5671 13.6221 10.5732 13.612C10.7696 13.288 11.194 12.7206 11.4659 12.4184C11.5652 12.3081 11.7441 12.1825 11.8894 12.1211C11.9259 12.1057 12.0914 12.0664 12.2572 12.0338C13.0393 11.88 13.7239 11.6877 13.984 11.5487C14.3911 11.331 14.6463 10.7792 14.6759 10.0521C14.6801 9.94987 14.6894 9.83916 14.6966 9.80607C14.7142 9.72498 14.779 9.6525 14.8926 9.58678C15.4719 9.25156 15.9785 8.80065 16.229 8.39728C16.4691 8.01073 16.5837 7.62792 16.5832 7.21411C16.5828 6.91755 16.5352 6.69246 16.4235 6.45912C16.2983 6.19748 16.1496 6.03372 15.7146 5.67824C15.4356 5.45029 15.2623 5.28227 15.2079 5.18691C15.122 5.03636 15.1749 4.83983 15.3207 4.76842C15.4466 4.70672 15.5474 4.69425 15.964 4.68888C16.3206 4.68427 16.3555 4.68177 16.4341 4.65521C16.5798 4.60592 16.5994 4.53886 16.4971 4.43954C16.431 4.37541 16.3881 4.35474 16.2386 4.31505C15.9851 4.24772 15.9371 4.22142 15.6697 4.00277C15.5361 3.89358 15.4106 3.81938 15.3049 3.7872C15.2171 3.76044 15.0133 3.7523 14.9264 3.77208Z" fill="#9791A1"/>
</svg>
