<svg width="21" height="21" viewBox="0 0 21 21" fill="none" xmlns="http://www.w3.org/2000/svg">
<g clip-path="url(#clip0_4147_40956)">
<path fill-rule="evenodd" clip-rule="evenodd" d="M20.501 10.6602C20.501 16.183 16.0238 20.6602 10.501 20.6602C4.97813 20.6602 0.500977 16.183 0.500977 10.6602C0.500977 5.13731 4.97813 0.660156 10.501 0.660156C16.0238 0.660156 20.501 5.13731 20.501 10.6602ZM10.8593 8.0426C9.88668 8.44715 7.94276 9.28449 5.02755 10.5546C4.55417 10.7428 4.30619 10.927 4.28362 11.1071C4.24546 11.4114 4.62657 11.5312 5.14553 11.6944C5.21613 11.7166 5.28927 11.7396 5.36426 11.764C5.87484 11.93 6.56167 12.1241 6.91872 12.1318C7.2426 12.1388 7.60408 12.0053 8.00318 11.7313C10.7269 9.89266 12.133 8.96333 12.2212 8.9433C12.2835 8.92916 12.3698 8.91139 12.4283 8.96336C12.4868 9.01533 12.481 9.11376 12.4748 9.14016C12.4371 9.30111 10.9411 10.6919 10.1669 11.4116C9.92557 11.636 9.75437 11.7952 9.71937 11.8315C9.64098 11.9129 9.56108 11.99 9.48429 12.064C9.00995 12.5213 8.65423 12.8642 9.50399 13.4241C9.91234 13.6932 10.2391 13.9158 10.5651 14.1378C10.9211 14.3802 11.2762 14.622 11.7357 14.9232C11.8527 14.9999 11.9645 15.0796 12.0734 15.1573C12.4877 15.4526 12.8599 15.718 13.3198 15.6757C13.587 15.6511 13.863 15.3998 14.0032 14.6504C14.3345 12.8794 14.9857 9.0422 15.1362 7.46097C15.1493 7.32243 15.1328 7.14513 15.1194 7.0673C15.1061 6.98947 15.0783 6.87858 14.9771 6.79649C14.8573 6.69927 14.6723 6.67877 14.5896 6.68023C14.2135 6.68685 13.6364 6.8875 10.8593 8.0426Z" fill="#9791A1"/>
</g>
<defs>
<clipPath id="clip0_4147_40956">
<rect width="20" height="20" fill="white" transform="translate(0.500977 0.660156)"/>
</clipPath>
</defs>
</svg>
