<svg width="21" height="14" viewBox="0 0 21 14" fill="none" xmlns="http://www.w3.org/2000/svg">
<rect x="0.601562" width="19.6" height="14" rx="2.8" fill="#F7931A"/>
<path fill-rule="evenodd" clip-rule="evenodd" d="M10.0804 2.50016C9.98435 2.88584 9.90215 3.2054 9.89772 3.21031C9.88688 3.22231 9.68863 3.1757 8.85821 2.96592C8.37638 2.84419 8.15434 2.79338 8.15065 2.80398C8.14769 2.81246 8.09744 3.01205 8.03897 3.24748C7.9805 3.48292 7.92993 3.68469 7.92659 3.69587C7.92167 3.71235 7.96611 3.727 8.16091 3.77315C8.46129 3.8443 8.60628 3.88571 8.69266 3.92503C8.83406 3.98937 8.92539 4.11088 8.94952 4.26682C8.96181 4.3462 8.95536 4.37382 8.4692 6.32488C7.92406 8.51261 7.96285 8.38245 7.83335 8.45834C7.73695 8.51483 7.65581 8.50788 7.2778 8.41074C7.10178 8.36551 6.95578 8.33067 6.95338 8.33333C6.94673 8.3407 6.53995 9.28407 6.53517 9.30321C6.53164 9.31736 7.21602 9.49803 8.20703 9.74459C8.24376 9.75372 8.26288 9.76568 8.26263 9.77934C8.26243 9.7908 8.18314 10.1158 8.08644 10.5015L7.91063 11.2028L7.9584 11.2156C8.21112 11.2833 8.77018 11.412 8.77723 11.404C8.78217 11.3985 8.8646 11.0792 8.96039 10.6945L9.13457 9.99513L9.46601 10.0799C9.64831 10.1266 9.80273 10.1698 9.80916 10.1759C9.8159 10.1824 9.74683 10.4833 9.64609 10.8864C9.54995 11.2711 9.47355 11.5877 9.47632 11.5899C9.48284 11.5953 10.3365 11.8079 10.3385 11.8047C10.3394 11.8033 10.42 11.4821 10.5176 11.091C10.6918 10.3929 10.6957 10.3797 10.727 10.3809C10.7446 10.3816 10.8568 10.3978 10.9763 10.417C11.6523 10.5252 12.2122 10.5145 12.6176 10.3854C13.2002 10.2 13.5769 9.78001 13.796 9.07159C13.8689 8.83592 13.8931 8.67639 13.8921 8.43695C13.8914 8.24609 13.8871 8.2039 13.8569 8.09049C13.7533 7.70194 13.4807 7.38355 13.0444 7.14178L12.9611 7.09559L13.0191 7.08109C13.051 7.07311 13.1312 7.04569 13.1974 7.02016C13.6826 6.83298 13.9728 6.43214 14.0647 5.82233C14.1944 4.9619 13.6823 4.32867 12.5042 3.89265C12.4208 3.86182 12.348 3.83242 12.3423 3.82731C12.3365 3.8222 12.4098 3.50609 12.5052 3.12482C12.6005 2.74355 12.6756 2.42403 12.672 2.41477C12.6656 2.39814 11.8258 2.18196 11.8153 2.19423C11.8124 2.1976 11.7342 2.50561 11.6415 2.87869C11.5488 3.25176 11.4709 3.56081 11.4684 3.56546C11.4659 3.57013 11.3971 3.55732 11.3155 3.53703C11.234 3.51673 11.0813 3.48071 10.9763 3.45697C10.8712 3.43325 10.7838 3.41294 10.782 3.41183C10.7801 3.41074 10.856 3.09696 10.9504 2.71455C11.0449 2.33214 11.1204 2.01741 11.1182 2.01516C11.1148 2.01178 10.3755 1.82595 10.2831 1.80523C10.2563 1.79923 10.247 1.83131 10.0804 2.50016ZM10.5366 4.45792C10.4529 4.77606 10.1162 6.15876 10.1212 6.16377C10.1322 6.17478 10.5704 6.28589 10.7458 6.32215C11.0305 6.381 11.2116 6.3987 11.457 6.39166C11.8105 6.38151 11.9857 6.32155 12.1563 6.15223C12.2598 6.04959 12.3184 5.94452 12.3521 5.80154C12.375 5.70446 12.3781 5.50751 12.3581 5.42074C12.3204 5.25686 12.1735 5.06536 11.9864 4.93597C11.7242 4.75476 11.3845 4.62884 10.7954 4.49458C10.5739 4.44408 10.5415 4.43949 10.5366 4.45792ZM9.8927 7.05014C9.87899 7.07493 9.41926 8.93902 9.42536 8.94512C9.43708 8.95686 9.86762 9.06718 10.0872 9.11473C10.5605 9.21719 10.9124 9.25316 11.1932 9.22778C11.4061 9.20852 11.5332 9.17602 11.6823 9.10264C11.9481 8.97178 12.109 8.69976 12.109 8.38114C12.109 8.00262 11.835 7.68973 11.2901 7.44626C11.0217 7.32631 10.6823 7.22371 10.1422 7.09928C10.0323 7.07395 9.93247 7.05019 9.9204 7.04648C9.90834 7.04276 9.89586 7.04441 9.8927 7.05014Z" fill="white"/>
</svg>
