<svg width="21" height="14" viewBox="0 0 21 14" fill="none" xmlns="http://www.w3.org/2000/svg">
<g clip-path="url(#clip0_4201_26060)">
<rect x="0.601562" width="19.6" height="14" rx="2.8" fill="white"/>
<path d="M10.5955 10.8422H10.2112L10.3073 9.30497C10.3019 9.22402 10.263 9.20274 10.1152 9.20889L8.5779 9.40105C8.5779 9.40105 8.86613 9.01674 8.86613 8.82458C8.86613 8.63242 7.13672 7.3834 7.13672 7.3834C7.13672 7.3834 7.52103 7.28732 7.61711 7.19125C7.71319 7.09517 7.2328 6.0383 7.2328 6.0383C7.2328 6.0383 8.20917 6.42262 8.28966 6.32654C8.37015 6.23046 8.48182 5.84615 8.48182 5.84615C8.48182 5.84615 9.25044 6.71085 9.4426 6.71085C9.63476 6.71085 9.05829 4.59713 9.05829 4.59713C9.05829 4.59713 9.53868 4.98144 9.73084 4.98144C9.92299 4.98144 10.4034 3.73242 10.4034 3.73242C10.4034 3.73242 10.8838 4.98144 10.9799 4.98144C11.0759 4.98144 11.7485 4.59713 11.7485 4.59713C11.7485 4.59713 11.2681 6.61477 11.3642 6.71085C11.4602 6.80693 12.325 5.84615 12.325 5.84615C12.325 5.84615 12.421 6.23046 12.5171 6.32654C12.6132 6.42262 13.574 6.0383 13.574 6.0383C13.574 6.0383 13.0936 7.09517 13.1897 7.19125C13.2857 7.28732 13.6701 7.3834 13.6701 7.3834C13.6701 7.3834 11.9406 8.63242 11.9406 8.82458C11.9406 9.01674 12.1328 9.40105 12.1328 9.40105L10.6916 9.20889C10.5758 9.17568 10.5356 9.20088 10.4995 9.30497L10.5955 10.8422Z" fill="#F93939"/>
<rect x="15.5352" width="4.66667" height="14" fill="#F93939"/>
<rect x="0.601562" width="4.66667" height="14" fill="#F93939"/>
</g>
<defs>
<clipPath id="clip0_4201_26060">
<rect x="0.601562" width="19.6" height="14" rx="2.8" fill="white"/>
</clipPath>
</defs>
</svg>
