<svg width="21" height="14" viewBox="0 0 21 14" fill="none" xmlns="http://www.w3.org/2000/svg">
<rect x="0.601562" width="19.6" height="14" rx="2.8" fill="#7B1AF7"/>
<path fill-rule="evenodd" clip-rule="evenodd" d="M9.23789 4.55916C7.43362 6.11382 5.9175 7.44236 5.86871 7.51138C5.81991 7.58046 5.79881 7.66747 5.82181 7.70473C5.84808 7.74721 6.57091 7.77246 7.7591 7.77246H9.65452L8.60342 9.88009C8.02534 11.0393 7.55232 12.028 7.55232 12.0774C7.55232 12.2512 7.71703 12.3201 7.9025 12.2239C8.07441 12.1347 14.3626 6.6313 14.5255 6.4275C14.7464 6.15108 14.6983 6.14368 12.6743 6.14368H10.7383L11.7977 4.03666C12.6591 2.3234 12.8418 1.91118 12.7753 1.83103C12.7303 1.77681 12.654 1.73242 12.6059 1.73242C12.5577 1.73242 11.0421 3.00443 9.23789 4.55916Z" fill="white"/>
</svg>
