<svg width="222" height="207" viewBox="0 0 222 207" fill="none" xmlns="http://www.w3.org/2000/svg">
<path d="M99.7673 50.6125C121.496 46.4879 143.389 65.6795 148.666 93.4778C153.742 120.222 141.589 145.185 121.311 150.713C136.258 140.849 144.096 119.189 139.806 96.5861C134.806 70.2487 114.955 51.1322 93.9297 52.3124C95.7974 51.5681 97.7461 50.9963 99.7673 50.6125Z" fill="#9381B1"/>
<path d="M138.721 96.7952C143.998 124.594 130.661 150.472 108.933 154.597C87.2039 158.721 65.3117 139.53 60.0349 111.732C54.7581 83.9334 68.095 58.0548 89.8236 53.9302C111.552 49.8056 133.444 68.9969 138.721 96.7952Z" fill="#AD9CC9"/>
<path fill-rule="evenodd" clip-rule="evenodd" d="M87.7272 3.09242C146.815 -12.4518 210.682 35.9367 230.379 111.171C250.076 186.405 218.144 259.995 159.057 275.54C99.9692 291.084 36.1017 242.695 16.4045 167.461C-3.29261 92.2272 28.6395 18.6367 87.7272 3.09242ZM213.879 115.391C196.521 49.0898 140.646 6.33952 89.0789 19.9052C37.512 33.471 9.78045 98.2155 27.1386 164.516C44.4969 230.817 100.372 273.568 151.939 260.003C203.506 246.437 231.237 181.692 213.879 115.391Z" fill="#5C487F"/>
<path fill-rule="evenodd" clip-rule="evenodd" d="M77.5374 8.9004C136.516 -6.57782 200.265 41.6052 219.925 116.52C239.586 191.435 207.713 264.713 148.735 280.191C89.7567 295.669 26.0075 247.486 6.34683 172.572C-13.3138 97.6568 18.5592 24.3786 77.5374 8.9004ZM203.455 120.722C186.129 54.7025 130.358 12.1337 78.8867 25.6418C27.4153 39.15 -0.264929 103.62 17.0611 169.639C34.3872 235.659 90.1585 278.228 141.63 264.72C193.101 251.212 220.782 186.742 203.455 120.722Z" fill="#2F2244"/>
<path d="M148.214 237.803C108.696 248.174 68.8297 225.147 45.7188 183.248C49.2896 165.675 62.7775 152.677 83.3893 157.436L140.852 167.252C159.523 171.683 177.67 190.566 185.052 213.628C175.251 225.411 162.843 233.963 148.214 237.803Z" fill="#78619E"/>
<path d="M137.745 245.951C98.2273 256.322 58.361 233.295 35.25 191.396C38.8208 173.823 52.3088 160.826 72.9205 165.585L130.383 175.4C149.054 179.831 167.201 198.715 174.584 221.776C164.782 233.56 152.374 242.112 137.745 245.951Z" fill="#443361"/>
<g filter="url(#filter0_f_5007_26491)">
<path d="M107.948 162.006C131.611 166.929 150.363 173.181 149.831 175.969C149.3 178.756 129.686 177.025 106.022 172.102C82.3588 167.179 63.6068 160.927 64.1384 158.139C64.6701 155.351 84.2841 157.083 107.948 162.006Z" fill="url(#paint0_radial_5007_26491)"/>
</g>
<defs>
<filter id="filter0_f_5007_26491" x="46.9289" y="139.605" width="120.115" height="54.8922" filterUnits="userSpaceOnUse" color-interpolation-filters="sRGB">
<feFlood flood-opacity="0" result="BackgroundImageFix"/>
<feBlend mode="normal" in="SourceGraphic" in2="BackgroundImageFix" result="shape"/>
<feGaussianBlur stdDeviation="8.6" result="effect1_foregroundBlur_5007_26491"/>
</filter>
<radialGradient id="paint0_radial_5007_26491" cx="0" cy="0" r="1" gradientUnits="userSpaceOnUse" gradientTransform="translate(106.985 167.054) rotate(100.797) scale(5.13901 43.7579)">
<stop offset="0.449694" stop-color="#9381B1"/>
<stop offset="1" stop-color="#9381B1" stop-opacity="0"/>
</radialGradient>
</defs>
</svg>
