<svg width="121" height="24" viewBox="0 0 121 24" fill="none" xmlns="http://www.w3.org/2000/svg">
<path fill-rule="evenodd" clip-rule="evenodd" d="M19.4519 21.538C23.2914 19.3213 24.8322 14.6521 23.2381 10.6516L8.13076 19.3737C10.7983 22.7545 15.6123 23.7547 19.4519 21.538ZM7.01246 20.0193C6.75705 19.6829 6.51988 19.3268 6.30318 18.9515L23.7862 8.85777C24.0029 9.2331 24.1927 9.61656 24.3564 10.0059C26.2971 14.6249 24.5441 20.0754 20.0916 22.646C15.6391 25.2166 10.0423 24.0096 7.01246 20.0193Z" fill="#C69A71"/>
<path fill-rule="evenodd" clip-rule="evenodd" d="M2.03786 16.9636C2.25082 18.8698 2.21507 19.8344 0 21.1132L28.8097 4.48015C26.5916 5.76076 25.7437 5.30522 24.1962 4.16587C24.0982 4.09371 23.9974 4.01882 23.8933 3.94145C23.8153 3.88352 23.7355 3.82421 23.6536 3.76362C23.413 3.58565 23.1543 3.39669 22.8721 3.19956C18.8643 -0.337037 12.893 -1.10391 8.00829 1.71623C3.1236 4.53638 0.80207 10.0911 1.861 15.3302C1.89113 15.6728 1.92585 15.9911 1.95993 16.2883C1.97086 16.3837 1.98174 16.477 1.99237 16.5681C2.00826 16.7044 2.02362 16.8362 2.03786 16.9636ZM5.51572 15.6618C4.01805 11.5162 5.65605 6.76764 9.60696 4.48662C13.5579 2.20559 18.4893 3.16135 21.3307 6.53112L5.51572 15.6618Z" fill="#C69A71"/>
<path fill-rule="evenodd" clip-rule="evenodd" d="M49.2365 14.0597C49.2365 10.0626 46.3935 6.82234 42.4093 6.82234C40.3771 6.82234 38.6609 7.90489 37.456 9.47387L37.456 2.70703L34.8086 2.70703L34.8086 14.0597C34.8086 18.0567 38.0384 21.297 42.0225 21.297C46.0067 21.297 49.2365 18.0567 49.2365 14.0597ZM41.9857 9.10164C44.5421 9.10164 46.6144 11.3158 46.6144 14.0472C46.6144 16.7786 44.5421 18.9928 41.9857 18.9928C39.4294 18.9928 37.357 16.7786 37.357 14.0472C37.357 11.3158 39.4294 9.10164 41.9857 9.10164Z" fill="#EFEDF1"/>
<path fill-rule="evenodd" clip-rule="evenodd" d="M106.252 14.1064C106.252 18.1035 109.095 21.3438 113.079 21.3438C115.111 21.3438 116.827 20.2612 118.032 18.6922L118.032 21.3438L120.68 21.3438L120.68 14.1064C120.68 10.1094 117.45 6.86911 113.466 6.86911C109.482 6.86911 106.252 10.1094 106.252 14.1064ZM113.503 19.0645C110.946 19.0645 108.874 16.8503 108.874 14.1189C108.874 11.3875 110.946 9.17334 113.503 9.17334C116.059 9.17334 118.131 11.3875 118.131 14.1189C118.131 16.8503 116.059 19.0645 113.503 19.0645Z" fill="#EFEDF1"/>
<path fill-rule="evenodd" clip-rule="evenodd" d="M51.9566 21.3283H54.6018L54.5905 6.82422L51.9453 6.82422L51.9566 21.3283Z" fill="#EFEDF1"/>
<path d="M57.3789 6.87109L57.3863 16.4552C57.3863 19.1724 59.3895 21.3752 62.1067 21.3752C64.8241 21.3752 67.0268 19.1724 67.0268 16.4552H64.7675C64.7675 17.7122 63.5561 18.9236 62.299 18.9236C61.0419 18.9236 60.0228 17.7122 60.0228 16.4552L60.0139 9.13024H64.2295V6.87109H57.3789Z" fill="#EFEDF1"/>
<path d="M71.7999 19.9167L66.8555 6.87109H69.651L73.732 17.9073C73.794 18.0748 74.0309 18.0748 74.0928 17.9073L78.1738 6.87109H80.9694L76.025 19.9167C75.6922 20.7946 74.8512 21.3752 73.9124 21.3752C72.9736 21.3752 72.1326 20.7946 71.7999 19.9167Z" fill="#EFEDF1"/>
<path fill-rule="evenodd" clip-rule="evenodd" d="M88.5874 21.3283C92.7066 21.3283 96.0459 18.0815 96.0459 14.0763C96.0459 10.0711 92.7066 6.82422 88.5874 6.82422C84.4682 6.82422 81.1289 10.0711 81.1289 14.0763C81.1289 18.0815 84.4682 21.3283 88.5874 21.3283ZM88.6169 19.1468C91.2545 19.1468 93.3927 16.8898 93.3927 14.1057C93.3927 11.3216 91.2545 9.06469 88.6169 9.06469C85.9793 9.06469 83.8411 11.3216 83.8411 14.1057C83.8411 16.8898 85.9793 19.1468 88.6169 19.1468Z" fill="#EFEDF1"/>
<path d="M101.41 21.3283H98.7652L98.7593 13.7397C98.7563 9.92127 101.851 6.82422 105.669 6.82422V9.04818C103.312 9.04818 101.402 10.9598 101.404 13.3167L101.41 21.3283Z" fill="#EFEDF1"/>
</svg>
