<svg width="20" height="20" viewBox="0 0 20 20" fill="none" xmlns="http://www.w3.org/2000/svg">
<path d="M0 10C0 4.47715 4.47715 0 10 0C15.5228 0 20 4.47715 20 10C20 15.5228 15.5228 20 10 20C4.47715 20 0 15.5228 0 10Z" fill="#F7931A"/>
<path fill-rule="evenodd" clip-rule="evenodd" d="M9.93172 3.7743C9.92972 3.78044 9.83072 4.17816 9.71171 4.65814C9.55959 5.27163 9.49136 5.5308 9.48197 5.5308C9.46992 5.5308 9.22369 5.47484 8.93249 5.40591C8.87202 5.39159 8.81355 5.37567 8.80256 5.37052C8.77988 5.35991 7.34543 5.0007 7.32571 5.0007C7.31711 5.0007 7.26752 5.18501 7.17434 5.56331C7.09813 5.87275 7.03387 6.13093 7.03156 6.13706C7.02896 6.14395 7.06478 6.1567 7.12535 6.17045C7.38403 6.22919 7.75984 6.32397 7.84647 6.35231C7.98928 6.39903 8.06844 6.44237 8.14787 6.51736C8.25369 6.61726 8.3171 6.76576 8.31763 6.91495C8.31774 6.94586 8.2259 7.33358 8.06793 7.96905C7.9305 8.52192 7.80926 8.99653 7.80926 9.0034L7.45896 10.4152C7.23981 11.2984 7.09906 11.8471 7.08301 11.8808C7.0458 11.9589 6.96078 12.0437 6.88565 12.0777C6.83303 12.1015 6.81059 12.1058 6.7386 12.1056C6.63622 12.1053 6.58807 12.0953 6.16119 11.985C5.97829 11.9377 5.82644 11.9013 5.82373 11.904C5.82102 11.9067 5.69999 12.1831 5.55479 12.5181C5.32748 13.0425 5.29309 13.1283 5.30753 13.1347C5.31677 13.1388 5.65715 13.2249 6.06394 13.3261C6.96885 13.5511 7.44045 13.6723 7.45184 13.6827C7.45657 13.687 7.36073 14.092 7.23886 14.5827C7.117 15.0734 7.01868 15.476 7.02038 15.4773C7.02584 15.4818 8.09114 15.7429 8.09306 15.7403C8.09407 15.7389 8.1929 15.3439 8.31268 14.8626C8.43247 14.3812 8.53369 13.9838 8.53762 13.9794C8.54155 13.9749 8.62301 13.9922 8.71864 14.0177C8.81427 14.0433 9.00432 14.0928 9.14098 14.1277C9.27764 14.1627 9.39136 14.1932 9.3937 14.1956C9.39604 14.1979 9.29915 14.5953 9.17837 15.0786C9.05759 15.562 8.95971 15.9583 8.96086 15.9595C8.962 15.9606 9.20419 16.022 9.49905 16.0958L10.0352 16.23L10.2575 15.3387C10.3797 14.8485 10.4813 14.4456 10.4832 14.4434C10.4851 14.4411 10.5665 14.4533 10.6641 14.4705C11.1451 14.5551 11.4663 14.5861 11.871 14.5869C12.4039 14.5879 12.747 14.5288 13.1004 14.3751C13.7534 14.091 14.2082 13.4606 14.4083 12.5621C14.462 12.3212 14.4807 12.0093 14.4539 11.8011C14.3986 11.3722 14.177 10.9901 13.8103 10.6916C13.7113 10.6111 13.4843 10.46 13.3822 10.4067C13.3043 10.3661 13.2894 10.3517 13.3252 10.3517C13.3629 10.3517 13.6181 10.2618 13.7237 10.2113C14.0458 10.0574 14.3174 9.78465 14.4745 9.45762C14.6346 9.12402 14.7232 8.66756 14.6951 8.32058C14.6658 7.95874 14.5495 7.66385 14.3245 7.38115C14.2444 7.28053 14.072 7.11046 13.96 7.02155C13.6491 6.77501 13.1992 6.53977 12.6687 6.34642C12.5876 6.31687 12.5198 6.28842 12.5181 6.28321C12.5164 6.27799 12.6138 5.87823 12.7346 5.39486C12.8553 4.91147 12.9533 4.51545 12.9523 4.51479C12.9393 4.50648 11.8837 4.24951 11.8796 4.25366C11.8764 4.25681 11.7781 4.64249 11.6611 5.11072C11.5441 5.57895 11.4459 5.96451 11.4429 5.96751C11.4399 5.97051 11.3439 5.95015 11.2295 5.92227C11.0662 5.88248 10.5879 5.77085 10.5806 5.77085C10.5806 5.77085 10.677 5.37929 10.7965 4.90073L11.014 4.03062L10.9777 4.02089C10.9578 4.01554 10.7151 3.95536 10.4384 3.88715C10.11 3.80617 9.93408 3.76701 9.93172 3.7743ZM9.76314 9.20145C9.75648 9.19487 10.2081 7.33985 10.2783 7.08539C10.2835 7.06652 10.2935 7.05109 10.3004 7.05109C10.3501 7.05109 10.9721 7.20157 11.1963 7.26782C11.6589 7.4045 12.0391 7.59527 12.2577 7.80045C12.4284 7.96062 12.5223 8.11914 12.5617 8.31351C12.5853 8.43008 12.5767 8.6327 12.5427 8.7626C12.4357 9.17098 12.1419 9.4097 11.6643 9.47637C11.374 9.51689 10.9497 9.48582 10.5047 9.39146C10.3165 9.35157 9.77454 9.21269 9.76314 9.20145ZM8.89098 12.669C8.8887 12.6667 9.02032 12.1305 9.18345 11.4775C9.46727 10.3415 9.48098 10.2905 9.50113 10.2955C9.51272 10.2983 9.6144 10.3216 9.72709 10.3472C10.061 10.423 10.4302 10.5166 10.609 10.5708C11.5582 10.8582 12.0832 11.2365 12.2179 11.73C12.2433 11.823 12.2487 12.0687 12.2275 12.1671C12.1213 12.6598 11.8076 12.9241 11.229 13.0086C11.0676 13.0322 10.6877 13.0322 10.4817 13.0085C10.1282 12.968 9.84124 12.9133 9.39726 12.802C9.06349 12.7184 8.89651 12.6745 8.89098 12.669Z" fill="white"/>
</svg>
