<svg width="64" height="64" viewBox="0 0 64 64" fill="none" xmlns="http://www.w3.org/2000/svg">
<path d="M0 4C0 1.79086 1.79086 0 4 0H60C62.2091 0 64 1.79086 64 4V60C64 62.2091 62.2091 64 60 64H4C1.79086 64 0 62.2091 0 60V4Z" fill="#423324"/>
<path d="M42.3193 41.582H24.5693C22.9193 41.582 21.3359 40.882 20.2193 39.6654C19.1026 38.4487 18.5359 36.8154 18.6693 35.1654L20.0526 18.5654C20.1026 18.0487 19.9193 17.5487 19.5693 17.1654C19.2193 16.782 18.7359 16.582 18.2193 16.582H15.3359C14.6526 16.582 14.0859 16.0154 14.0859 15.332C14.0859 14.6487 14.6526 14.082 15.3359 14.082H18.2359C19.4526 14.082 20.6026 14.5987 21.4193 15.482C21.8693 15.982 22.2026 16.5654 22.3859 17.2154H43.2026C44.8859 17.2154 46.4359 17.882 47.5693 19.082C48.6859 20.2987 49.2526 21.882 49.1193 23.5654L48.2193 36.0654C48.0359 39.1154 45.3693 41.582 42.3193 41.582ZM22.4693 19.6987L21.1693 35.3653C21.0859 36.332 21.4026 37.2487 22.0526 37.9653C22.7026 38.682 23.6026 39.0653 24.5693 39.0653H42.3193C44.0526 39.0653 45.6193 37.5987 45.7526 35.8654L46.6526 23.3654C46.7193 22.382 46.4026 21.4487 45.7526 20.7654C45.1026 20.0654 44.2026 19.682 43.2193 19.682H22.4693V19.6987Z" fill="#D2B9A2"/>
<path d="M39.0833 49.9167C37.25 49.9167 35.75 48.4167 35.75 46.5833C35.75 44.75 37.25 43.25 39.0833 43.25C40.9167 43.25 42.4167 44.75 42.4167 46.5833C42.4167 48.4167 40.9167 49.9167 39.0833 49.9167ZM39.0833 45.75C38.6167 45.75 38.25 46.1167 38.25 46.5833C38.25 47.05 38.6167 47.4167 39.0833 47.4167C39.55 47.4167 39.9167 47.05 39.9167 46.5833C39.9167 46.1167 39.55 45.75 39.0833 45.75Z" fill="#D2B9A2"/>
<path d="M25.7474 49.9167C23.9141 49.9167 22.4141 48.4167 22.4141 46.5833C22.4141 44.75 23.9141 43.25 25.7474 43.25C27.5807 43.25 29.0807 44.75 29.0807 46.5833C29.0807 48.4167 27.5807 49.9167 25.7474 49.9167ZM25.7474 45.75C25.2807 45.75 24.9141 46.1167 24.9141 46.5833C24.9141 47.05 25.2807 47.4167 25.7474 47.4167C26.2141 47.4167 26.5807 47.05 26.5807 46.5833C26.5807 46.1167 26.2141 45.75 25.7474 45.75Z" fill="#D2B9A2"/>
<path d="M47 26.582H27C26.3167 26.582 25.75 26.0154 25.75 25.332C25.75 24.6487 26.3167 24.082 27 24.082H47C47.6833 24.082 48.25 24.6487 48.25 25.332C48.25 26.0154 47.6833 26.582 47 26.582Z" fill="#D2B9A2"/>
</svg>
