<svg width="64" height="64" viewBox="0 0 64 64" fill="none" xmlns="http://www.w3.org/2000/svg">
<path d="M0 8C0 3.58172 3.58172 0 8 0H56C60.4183 0 64 3.58172 64 8V56C64 60.4183 60.4183 64 56 64H8C3.58172 64 0 60.4183 0 56V8Z" fill="#423324"/>
<path d="M44.368 31.582H38.668C37.9846 31.582 37.418 31.0154 37.418 30.332V18.682C37.418 17.4487 37.9013 16.2987 38.768 15.432C39.6346 14.5654 40.7846 14.082 42.018 14.082H42.0346C44.118 14.0987 46.0846 14.9154 47.5846 16.3987C49.0846 17.9154 49.9013 19.9154 49.9013 21.9987V26.032C49.918 29.3487 47.6846 31.582 44.368 31.582ZM39.918 29.082H44.368C46.3013 29.082 47.418 27.9654 47.418 26.032V21.9987C47.418 20.5654 46.8513 19.1987 45.8346 18.1654C44.818 17.1654 43.4513 16.5987 42.0346 16.582C42.0346 16.582 42.0346 16.582 42.018 16.582C41.468 16.582 40.9346 16.7987 40.5346 17.1987C40.1346 17.5987 39.918 18.1154 39.918 18.682V29.082Z" fill="#D2B9A2"/>
<path d="M26.9987 50.882C26.2154 50.882 25.482 50.582 24.932 50.0154L22.1654 47.232C22.0154 47.082 21.782 47.0654 21.6154 47.1987L18.7487 49.332C17.8654 49.9987 16.6987 50.1154 15.6987 49.6154C14.6987 49.1154 14.082 48.1154 14.082 46.9987V21.9987C14.082 16.9654 16.9654 14.082 21.9987 14.082H41.9987C42.682 14.082 43.2487 14.6487 43.2487 15.332C43.2487 16.0154 42.682 16.582 41.9987 16.582C40.8487 16.582 39.9154 17.5154 39.9154 18.6654V46.9987C39.9154 48.1154 39.2987 49.1154 38.2987 49.6154C37.2987 50.1154 36.132 50.0154 35.2487 49.3487L32.3987 47.2154C32.232 47.082 31.9987 47.1154 31.8654 47.2487L29.0654 50.0487C28.5154 50.582 27.782 50.882 26.9987 50.882ZM21.8487 44.6154C22.6154 44.6154 23.3654 44.8987 23.932 45.482L26.6987 48.2654C26.7987 48.3654 26.932 48.382 26.9987 48.382C27.0654 48.382 27.1987 48.3654 27.2987 48.2654L30.0987 45.4654C31.132 44.432 32.7654 44.332 33.9154 45.2154L36.7487 47.332C36.932 47.4654 37.0987 47.4154 37.182 47.3654C37.2654 47.3154 37.4154 47.2154 37.4154 46.9987V18.6654C37.4154 17.9154 37.5987 17.1987 37.9154 16.582H21.9987C18.2987 16.582 16.582 18.2987 16.582 21.9987V46.9987C16.582 47.232 16.732 47.332 16.8154 47.382C16.9154 47.432 17.082 47.4654 17.2487 47.332L20.0987 45.1987C20.6154 44.8154 21.232 44.6154 21.8487 44.6154Z" fill="#D2B9A2"/>
<path d="M32 34.9336H27C26.3167 34.9336 25.75 34.3669 25.75 33.6836C25.75 33.0003 26.3167 32.4336 27 32.4336H32C32.6833 32.4336 33.25 33.0003 33.25 33.6836C33.25 34.3669 32.6833 34.9336 32 34.9336Z" fill="#D2B9A2"/>
<path d="M32 28.2656H27C26.3167 28.2656 25.75 27.699 25.75 27.0156C25.75 26.3323 26.3167 25.7656 27 25.7656H32C32.6833 25.7656 33.25 26.3323 33.25 27.0156C33.25 27.699 32.6833 28.2656 32 28.2656Z" fill="#D2B9A2"/>
<path d="M21.9518 28.6849C21.0352 28.6849 20.2852 27.9349 20.2852 27.0182C20.2852 26.1016 21.0352 25.3516 21.9518 25.3516C22.8685 25.3516 23.6185 26.1016 23.6185 27.0182C23.6185 27.9349 22.8685 28.6849 21.9518 28.6849Z" fill="#D2B9A2"/>
<path d="M21.9518 35.349C21.0352 35.349 20.2852 34.599 20.2852 33.6823C20.2852 32.7656 21.0352 32.0156 21.9518 32.0156C22.8685 32.0156 23.6185 32.7656 23.6185 33.6823C23.6185 34.599 22.8685 35.349 21.9518 35.349Z" fill="#D2B9A2"/>
</svg>
