<svg width="40" height="40" viewBox="0 0 40 40" fill="none" xmlns="http://www.w3.org/2000/svg">
<g clip-path="url(#clip0_4372_37702)">
<rect width="40" height="40" rx="4" fill="#312E36"/>
<path fill-rule="evenodd" clip-rule="evenodd" d="M18.3243 7.63024C12.5384 8.43256 8.78221 13.98 10.2005 19.6283C10.8797 22.3333 12.7588 24.6391 15.3227 25.9139C17.4957 26.9943 20.2842 27.1844 22.601 26.4102C24.7709 25.6849 26.6904 24.1504 27.877 22.1924C28.2505 21.576 28.7443 20.376 28.932 19.6283C29.8862 15.8282 28.4981 11.8504 25.4086 9.53168C24.2183 8.63835 22.8993 8.04134 21.4658 7.74704C20.6778 7.58522 19.078 7.52581 18.3243 7.63024ZM14.959 28.0723C12.658 28.239 10.5816 28.8831 8.73509 30.003C5.65256 31.8726 3.37502 34.8999 2.50271 38.2871C2.11868 39.7782 2.09516 40.0762 2.0545 43.9581L2.01562 47.6762L2.20275 48.0353C2.30572 48.2327 2.5297 48.5055 2.70058 48.6415L3.01121 48.8887H19.5663H36.1213L36.432 48.6415C36.6029 48.5055 36.8268 48.2327 36.9298 48.0353L37.1169 47.6762L37.078 43.9581C37.0374 40.0762 37.0139 39.7782 36.6298 38.2871C35.413 33.562 31.5187 29.6874 26.7776 28.4846C25.1899 28.0819 24.8696 28.0599 20.2129 28.0347C17.79 28.0216 15.4258 28.0385 14.959 28.0723Z" fill="#15101E"/>
</g>
<defs>
<clipPath id="clip0_4372_37702">
<rect width="40" height="40" rx="4" fill="white"/>
</clipPath>
</defs>
</svg>
