<svg width="227" height="218" viewBox="0 0 227 218" fill="none" xmlns="http://www.w3.org/2000/svg">
<path d="M21.1081 82.6956L221.622 169.868C226.406 171.948 229.336 175.712 229.336 179.776V210.996V262.456V295.623C229.336 297.563 228.709 299.343 227.618 300.895L235.319 295.854V168.019C235.319 166.005 234.111 164.188 232.255 163.409L40.0972 82.6956L62.6806 73.8466L235.632 145.577C237.873 146.506 239.333 148.693 239.333 151.119V293.226C242.778 290.972 244.854 287.132 244.854 283.015V144.133C244.854 141.72 243.409 139.542 241.186 138.604L60.0913 62.2037C58.8582 61.6835 57.468 61.6794 56.2318 62.1922L10.3516 81.226C13.8573 80.7764 17.636 81.1861 21.1081 82.6956Z" fill="#5C487F"/>
<g filter="url(#filter0_f_4482_27470)">
<path d="M140.972 93.6427C178.238 111.925 204.637 134.854 199.935 144.857C195.233 154.861 161.211 148.15 123.945 129.868C86.679 111.586 60.2803 88.6564 64.9821 78.6531C69.6839 68.6498 103.706 75.3609 140.972 93.6427Z" fill="url(#paint0_radial_4482_27470)"/>
</g>
<path d="M221.62 169.869L21.1063 82.6966C17.6342 81.1871 13.8555 80.7774 10.3498 81.227C4.22205 83.1628 0.222656 87.629 0.222656 92.6049V198.62C0.222656 208.781 4.54981 218.191 16.5093 223.391L205.451 305.532C213.699 309.118 223.676 306.498 227.616 300.896C228.707 299.344 229.335 297.564 229.335 295.624V262.457V210.997V179.777C229.335 175.713 226.404 171.949 221.62 169.869Z" fill="#2F2244"/>
<path d="M232.251 163.406L40.0938 82.6927L62.6772 73.8438L235.629 145.574C237.869 146.503 239.33 148.69 239.33 151.116V293.224L235.315 295.851V168.016C235.315 166.003 234.108 164.186 232.251 163.406Z" fill="#1E162C"/>
<path fill-rule="evenodd" clip-rule="evenodd" d="M229.335 208.953L146.971 170.35C144.34 169.313 141.145 170.704 141.145 172.887L142.145 220.211C142.145 223.338 144.456 226.221 148.191 227.752L229.335 260.412V208.953ZM181.083 225.686C188.345 223.447 190.46 215.113 185.806 207.071C181.152 199.029 171.492 194.325 164.23 196.564C156.968 198.803 154.853 207.138 159.507 215.18C164.161 223.222 173.821 227.926 181.083 225.686Z" fill="#443361"/>
<g opacity="0.5" filter="url(#filter1_f_4482_27470)">
<path d="M158.109 55.0219C170.191 78.8541 168.65 104.172 154.667 111.571C140.683 118.97 119.553 105.648 107.471 81.8161C95.3884 57.9839 96.9295 32.666 110.913 25.2669C124.896 17.8679 146.027 31.1896 158.109 55.0219Z" fill="#9381B1"/>
</g>
<path d="M158.109 55.0219C170.191 78.8541 168.65 104.172 154.667 111.571C140.683 118.97 119.553 105.648 107.471 81.8161C95.3884 57.9839 96.9295 32.666 110.913 25.2669C124.896 17.8679 146.027 31.1896 158.109 55.0219Z" fill="#AD9CC9"/>
<path d="M163.219 106.5C179.517 97.8763 182.935 71.5652 170.853 47.733C158.771 23.9008 135.763 11.5721 119.465 20.1963C118.85 20.5215 118.254 20.8719 117.676 21.2464C123.682 20.7717 130.146 22.8317 136.275 26.6954C145.173 32.3053 153.707 41.8956 159.886 54.0837C166.065 66.2718 168.808 78.9258 168.159 89.5873C167.762 96.1212 166.068 102.053 162.991 106.619C163.067 106.58 163.143 106.54 163.219 106.5Z" fill="#9381B1"/>
<defs>
<filter id="filter0_f_4482_27470" x="47.2414" y="56.8156" width="170.435" height="109.877" filterUnits="userSpaceOnUse" color-interpolation-filters="sRGB">
<feFlood flood-opacity="0" result="BackgroundImageFix"/>
<feBlend mode="normal" in="SourceGraphic" in2="BackgroundImageFix" result="shape"/>
<feGaussianBlur stdDeviation="8.6" result="effect1_foregroundBlur_4482_27470"/>
</filter>
<filter id="filter1_f_4482_27470" x="76.9281" y="0.826563" width="111.722" height="135.191" filterUnits="userSpaceOnUse" color-interpolation-filters="sRGB">
<feFlood flood-opacity="0" result="BackgroundImageFix"/>
<feBlend mode="normal" in="SourceGraphic" in2="BackgroundImageFix" result="shape"/>
<feGaussianBlur stdDeviation="11.2" result="effect1_foregroundBlur_4482_27470"/>
</filter>
<radialGradient id="paint0_radial_4482_27470" cx="0" cy="0" r="1" gradientUnits="userSpaceOnUse" gradientTransform="translate(132.459 111.755) rotate(115.175) scale(20.0135 75.1482)">
<stop offset="0.449694" stop-color="#9381B1"/>
<stop offset="1" stop-color="#9381B1" stop-opacity="0"/>
</radialGradient>
</defs>
</svg>
