<svg width="505" height="534" viewBox="0 0 505 534" fill="none" xmlns="http://www.w3.org/2000/svg">
<path fill-rule="evenodd" clip-rule="evenodd" d="M353.619 211.76L380.319 63.739C380.917 60.4217 379.785 57.0279 377.315 54.7343C373.312 51.0173 367.053 51.2495 363.336 55.2529L128.572 308.105C122.586 314.553 124.993 325.006 133.196 328.186L245.072 371.547C250.535 373.664 253.782 379.303 252.872 385.09L232.653 513.649C231.897 518.454 233.581 523.32 237.146 526.629C243.061 532.121 252.307 531.778 257.799 525.863L478.624 288.024C484.646 281.537 482.167 271.015 473.883 267.899L361.488 225.624C355.863 223.508 352.552 217.675 353.619 211.76ZM382.77 64.1811L356.069 212.202C355.216 216.934 357.864 221.6 362.365 223.293L474.76 265.568C484.701 269.308 487.675 281.934 480.449 289.718L259.624 527.557C253.196 534.48 242.374 534.881 235.451 528.454C231.28 524.581 229.308 518.886 230.193 513.262L250.412 384.703C251.141 380.073 248.543 375.562 244.173 373.869L132.297 330.508C122.453 326.692 119.564 314.148 126.747 306.411L361.511 53.5587C366.164 48.5475 373.998 48.2568 379.009 52.9095C382.101 55.7805 383.519 60.0286 382.77 64.1811Z" fill="url(#paint0_linear_5153_27291)"/>
<g filter="url(#filter0_dif_5153_27291)">
<path d="M334.631 174.565L359.29 37.8595C359.982 34.0245 358.673 30.1011 355.817 27.4496C351.189 23.1526 343.954 23.421 339.657 28.0491L122.84 261.572C116.205 268.717 118.874 280.303 127.965 283.826L231.289 323.873C235.324 325.437 237.724 329.603 237.051 333.879L218.378 452.61C217.561 457.804 219.381 463.063 223.234 466.641C229.627 472.577 239.622 472.206 245.558 465.813L449.502 246.155C456.177 238.966 453.429 227.305 444.248 223.852L340.445 184.808C336.289 183.245 333.843 178.935 334.631 174.565Z" fill="#15101E" fill-opacity="0.3" shape-rendering="crispEdges"/>
</g>
<path fill-rule="evenodd" clip-rule="evenodd" d="M336.193 171.917L362.893 23.8953C363.491 20.5779 362.359 17.1842 359.889 14.8906C355.886 11.1736 349.627 11.4058 345.91 15.4092L111.146 268.262C105.16 274.709 107.567 285.163 115.77 288.342L227.646 331.703C233.109 333.82 236.356 339.459 235.446 345.246L215.227 473.805C214.471 478.61 216.155 483.476 219.72 486.786C225.634 492.277 234.881 491.934 240.373 486.019L461.198 248.18C467.22 241.694 464.741 231.171 456.457 228.055L344.062 185.78C338.437 183.664 335.126 177.831 336.193 171.917ZM365.344 24.3373L338.643 172.359C337.79 177.09 340.438 181.757 344.939 183.449L457.334 225.725C467.275 229.464 470.249 242.091 463.023 249.874L242.198 487.714C235.77 494.636 224.948 495.038 218.025 488.61C213.854 484.737 211.882 479.042 212.767 473.419L232.986 344.859C233.715 340.23 231.117 335.718 226.747 334.025L114.871 290.664C105.027 286.848 102.138 274.304 109.321 266.567L344.085 13.7149C348.738 8.7037 356.572 8.41307 361.583 13.0658C364.675 15.9368 366.093 20.1848 365.344 24.3373Z" fill="url(#paint1_linear_5153_27291)"/>
<path fill-rule="evenodd" clip-rule="evenodd" d="M202.679 132.829C201.762 131.98 201.707 130.548 202.556 129.631L256.568 71.3039C257.417 70.3869 258.849 70.3319 259.766 71.1811V71.1811C260.683 72.0303 260.738 73.4622 259.889 74.3793L205.877 132.707C205.028 133.624 203.596 133.679 202.679 132.829V132.829Z" fill="url(#paint2_linear_5153_27291)"/>
<path fill-rule="evenodd" clip-rule="evenodd" d="M330.954 117.63C330.037 116.781 329.982 115.349 330.831 114.432L384.843 56.1047C385.692 55.1876 387.124 55.1326 388.041 55.9819V55.9819C388.958 56.8311 389.013 58.263 388.164 59.1801L334.152 117.507C333.303 118.424 331.871 118.479 330.954 117.63V117.63Z" fill="url(#paint3_linear_5153_27291)"/>
<path fill-rule="evenodd" clip-rule="evenodd" d="M392.587 153.701C391.67 152.851 391.615 151.419 392.464 150.502L446.476 92.175C447.325 91.258 448.757 91.203 449.674 92.0522V92.0522C450.591 92.9014 450.646 94.3333 449.797 95.2504L395.785 153.578C394.936 154.495 393.504 154.55 392.587 153.701V153.701Z" fill="url(#paint4_linear_5153_27291)"/>
<path fill-rule="evenodd" clip-rule="evenodd" d="M359.995 234.058C359.078 233.208 359.023 231.777 359.872 230.86L397.402 190.331C398.251 189.414 399.683 189.359 400.6 190.208V190.208C401.517 191.058 401.572 192.49 400.723 193.407L363.193 233.935C362.344 234.852 360.912 234.907 359.995 234.058V234.058Z" fill="url(#paint5_linear_5153_27291)"/>
<path fill-rule="evenodd" clip-rule="evenodd" d="M309.216 375.921C308.299 375.072 308.244 373.64 309.093 372.723L346.623 332.195C347.472 331.277 348.904 331.222 349.821 332.072V332.072C350.738 332.921 350.793 334.353 349.944 335.27L312.414 375.798C311.565 376.715 310.133 376.77 309.216 375.921V375.921Z" fill="url(#paint6_linear_5153_27291)"/>
<path fill-rule="evenodd" clip-rule="evenodd" d="M429.451 239.439C428.534 238.59 428.479 237.158 429.328 236.241L500.142 159.769C500.991 158.852 502.423 158.797 503.34 159.646V159.646C504.257 160.495 504.312 161.927 503.463 162.844L432.649 239.316C431.8 240.233 430.368 240.288 429.451 239.439V239.439Z" fill="url(#paint7_linear_5153_27291)"/>
<path fill-rule="evenodd" clip-rule="evenodd" d="M396.61 337.871C395.693 337.022 395.638 335.59 396.488 334.673L447.373 279.722C448.222 278.805 449.654 278.75 450.571 279.599V279.599C451.488 280.448 451.543 281.88 450.694 282.797L399.809 337.748C398.959 338.666 397.528 338.721 396.61 337.871V337.871Z" fill="url(#paint8_linear_5153_27291)"/>
<path fill-rule="evenodd" clip-rule="evenodd" d="M2.34618 291.435C1.4291 290.586 1.37409 289.154 2.22332 288.237L56.235 229.909C57.0843 228.992 58.5161 228.937 59.4332 229.787V229.787C60.3503 230.636 60.4053 232.068 59.5561 232.985L5.54437 291.312C4.69514 292.229 3.26326 292.284 2.34618 291.435V291.435Z" fill="url(#paint9_linear_5153_27291)"/>
<path fill-rule="evenodd" clip-rule="evenodd" d="M121.294 383.931C120.377 383.082 120.322 381.65 121.171 380.733L175.183 322.406C176.032 321.488 177.464 321.433 178.381 322.283V322.283C179.298 323.132 179.353 324.564 178.504 325.481L124.492 383.808C123.643 384.725 122.211 384.78 121.294 383.931V383.931Z" fill="url(#paint10_linear_5153_27291)"/>
<defs>
<filter id="filter0_dif_5153_27291" x="95.1484" y="0.394531" width="382.045" height="500.465" filterUnits="userSpaceOnUse" color-interpolation-filters="sRGB">
<feFlood flood-opacity="0" result="BackgroundImageFix"/>
<feColorMatrix in="SourceAlpha" type="matrix" values="0 0 0 0 0 0 0 0 0 0 0 0 0 0 0 0 0 0 127 0" result="hardAlpha"/>
<feOffset dx="13" dy="26"/>
<feGaussianBlur stdDeviation="2"/>
<feComposite in2="hardAlpha" operator="out"/>
<feColorMatrix type="matrix" values="0 0 0 0 0.117647 0 0 0 0 0.0862745 0 0 0 0 0.172549 0 0 0 0.5 0"/>
<feBlend mode="normal" in2="BackgroundImageFix" result="effect1_dropShadow_5153_27291"/>
<feBlend mode="normal" in="SourceGraphic" in2="effect1_dropShadow_5153_27291" result="shape"/>
<feColorMatrix in="SourceAlpha" type="matrix" values="0 0 0 0 0 0 0 0 0 0 0 0 0 0 0 0 0 0 127 0" result="hardAlpha"/>
<feOffset/>
<feGaussianBlur stdDeviation="20"/>
<feComposite in2="hardAlpha" operator="arithmetic" k2="-1" k3="1"/>
<feColorMatrix type="matrix" values="0 0 0 0 0.576471 0 0 0 0 0.505882 0 0 0 0 0.694118 0 0 0 0.5 0"/>
<feBlend mode="normal" in2="shape" result="effect2_innerShadow_5153_27291"/>
<feGaussianBlur stdDeviation="12" result="effect3_foregroundBlur_5153_27291"/>
</filter>
<linearGradient id="paint0_linear_5153_27291" x1="248.572" y1="169.483" x2="420.145" y2="366.505" gradientUnits="userSpaceOnUse">
<stop offset="0.647012" stop-color="#5C487F"/>
<stop offset="0.996869" stop-color="#2F2244"/>
</linearGradient>
<linearGradient id="paint1_linear_5153_27291" x1="215.95" y1="77.8244" x2="465.178" y2="241.738" gradientUnits="userSpaceOnUse">
<stop stop-color="#9381B1"/>
<stop offset="1" stop-color="#9381B1"/>
</linearGradient>
<linearGradient id="paint2_linear_5153_27291" x1="279.423" y1="51.3415" x2="202.679" y2="132.829" gradientUnits="userSpaceOnUse">
<stop stop-color="#B4804B"/>
<stop offset="1" stop-color="#15101E" stop-opacity="0"/>
</linearGradient>
<linearGradient id="paint3_linear_5153_27291" x1="388.041" y1="55.9819" x2="330.954" y2="117.63" gradientUnits="userSpaceOnUse">
<stop stop-color="#C69A71"/>
<stop offset="1" stop-color="#15101E" stop-opacity="0"/>
</linearGradient>
<linearGradient id="paint4_linear_5153_27291" x1="449.674" y1="92.0522" x2="392.587" y2="153.701" gradientUnits="userSpaceOnUse">
<stop stop-color="#C69A71"/>
<stop offset="1" stop-color="#15101E" stop-opacity="0"/>
</linearGradient>
<linearGradient id="paint5_linear_5153_27291" x1="400.6" y1="190.208" x2="359.995" y2="234.058" gradientUnits="userSpaceOnUse">
<stop offset="0.264677" stop-color="#B4804B"/>
<stop offset="1" stop-color="#15101E" stop-opacity="0"/>
</linearGradient>
<linearGradient id="paint6_linear_5153_27291" x1="349.821" y1="332.072" x2="309.216" y2="375.921" gradientUnits="userSpaceOnUse">
<stop stop-color="#B4804B"/>
<stop offset="1" stop-color="#15101E" stop-opacity="0"/>
</linearGradient>
<linearGradient id="paint7_linear_5153_27291" x1="503.34" y1="159.646" x2="429.451" y2="239.439" gradientUnits="userSpaceOnUse">
<stop stop-color="#C69A71"/>
<stop offset="1" stop-color="#15101E" stop-opacity="0"/>
</linearGradient>
<linearGradient id="paint8_linear_5153_27291" x1="450.571" y1="279.599" x2="396.61" y2="337.871" gradientUnits="userSpaceOnUse">
<stop stop-color="#C69A71"/>
<stop offset="1" stop-color="#15101E" stop-opacity="0"/>
</linearGradient>
<linearGradient id="paint9_linear_5153_27291" x1="82.8448" y1="205.961" x2="2.34618" y2="291.435" gradientUnits="userSpaceOnUse">
<stop stop-color="#B4804B"/>
<stop offset="1" stop-color="#15101E" stop-opacity="0"/>
</linearGradient>
<linearGradient id="paint10_linear_5153_27291" x1="194.745" y1="308.689" x2="121.294" y2="383.931" gradientUnits="userSpaceOnUse">
<stop stop-color="#B4804B"/>
<stop offset="1" stop-color="#15101E" stop-opacity="0"/>
</linearGradient>
</defs>
</svg>
